#N canvas 53 23 1227 755 12;
#X obj 287 479 *~ 0.1;
#X obj 347 478 *~ 0.1;
#X obj 127 -26 osc~;
#X obj 131 124 *~;
#X obj 58 -47 mtof;
#X msg 67 -89 40;
#X obj 146 39 phasor~ 0.3;
#X obj 184 71 pink~;
#X obj 147 73 min~;
#X obj 147 98 lop~ 40;
#X obj 374 7 osc~;
#X obj 395 127 *~;
#X obj 386 -19 mtof;
#X msg 376 -42 40;
#X obj 489 24 pink~;
#X obj 452 24 min~;
#X obj 450 46 lop~ 40;
#X obj 242 129 min~;
#X obj 554 -6 phasor~ 0.2;
#X obj 459 317 *~;
#X obj 508 173 lop~ 40;
#X obj 459 345 *~ 0.8;
#X obj 562 99 random 60;
#X obj 563 125 / 100;
#X obj 562 72 metro 800;
#X obj 563 53 tgl 15 0 empty empty empty 17 7 0 10 #fcfcfc #000000 #000000 0 1;
#X obj 23 93 random 60;
#X obj 24 119 / 100;
#X obj 23 66 metro 800;
#X obj 24 47 tgl 15 0 empty empty empty 17 7 0 10 #fcfcfc #000000 #000000 0 1;
#X obj 299 124 vline~;
#X obj 730 154 metro 800;
#X obj 731 135 tgl 15 0 empty empty empty 17 7 0 10 #fcfcfc #000000 #000000 0 1;
#X obj 731 207 * 10;
#X obj 276 -39 phasor~;
#X obj 316 5 phasor~;
#X obj 280 150 vcf~ 20;
#X obj 413 -79 sel 0 1 2 3;
#X obj 36 -141 random 4;
#X obj 36 -115 sel 0 1 2 3;
#X obj 731 260 vline~;
#X obj 730 283 vd~ ddd;
#X obj 730 181 random 80;
#X obj 731 234 * 20;
#X obj 252 -115 mtof;
#X obj 251 -92 osc~;
#X msg 251 -142 24;
#X obj 684 -35 pink~;
#X obj 683 -11 lop~ 50;
#X obj 791 259 pink~;
#X obj 790 283 lop~ 150;
#X obj 164 321 bp~ 50 2;
#X obj 430 178 vline~;
#X obj 411 204 vcf~ 10;
#X obj 513 124 * 100;
#X obj 322 181 *~;
#X obj 703 337 *~;
#X obj 748 340 *~;
#X obj 282 32 *~;
#X obj 527 -32 hsl 128 15 0 1 0 0 empty empty empty -2 -8 0 10 #fcfcfc #000000 #000000 0 1;
#X obj 62 392 *~;
#X floatatom 176 -86 5 0 0 0 - - - 0;
#X obj 311 -206 bng 15 250 50 0 empty empty empty 17 7 0 10 #fcfcfc #000000 #000000;
#X obj 176 -110 + 10;
#X obj 176 -155 random 10;
#X msg 304 99 \$1 3000;
#X obj 60 -200 delay 10;
#X obj 665 57 loadbang;
#X obj 46 43 loadbang;
#X obj 428 -156 == 3;
#X obj 418 -131 sel 1;
#X obj 463 -131 sel 0;
#X obj 424 -107 i;
#X obj 454 -192 t a a a;
#X obj 176 -132 * 20;
#X msg 438 -42 37;
#X msg 470 -42 42;
#X msg 137 -87 43;
#X msg 102 -89 47;
#X msg 33 -85 39;
#X msg 407 -43 52;
#X obj 282 66 *~ 1;
#X floatatom 341 -77 5 0 0 0 - - - 0;
#X obj 337 -115 line;
#X obj 11 3 line;
#X floatatom 9 25 5 0 0 0 - - - 0;
#X obj 701 379 *~ 0.5;
#X msg 435 153 \$1 1000;
#X msg 11 -20 \$1 500;
#X obj 576 -187 metro 5000;
#X obj 556 -203 tgl 15 0 empty empty empty 17 7 0 10 #fcfcfc #000000 #000000 0 1;
#X obj 619 -114 * 1000;
#X floatatom 623 -87 5 0 0 0 - - - 0;
#X obj 581 -147 random 10;
#X obj 530 -166 t b b;
#X obj 388 -190 random 4;
#X msg 337 -138 \$1 100;
#X obj 62 422 *~ 1;
#X obj 522 -77 loadbang;
#X msg 523 -55 1;
#X obj 44 191 pluckedString;
#X obj 614 158 pluckedString;
#X obj 623 -59 r cap2;
#X obj 593 -57 - 1;
#X obj 566 -57 abs;
#X obj 371 302 *~ 0.2;
#X obj 335 330 *~ 0.2;
#X obj 302 541 +~;
#X obj 344 541 +~;
#X obj 316 604 outlet~;
#X obj 760 -175 inlet;
#X obj 25 355 delread~ ddd 600;
#X obj 58 238 delwrite~ ddd 600;
#X obj 165 295 delread~ ddd;
#X obj 257 213 delwrite~ tbt 200;
#X obj 298 278 delread~ tbt 120;
#X obj 544 261 delread~ tbt 200;
#X obj 251 -164 delay 500;
#X obj 729 586 outlet~;
#X obj 633 583 outlet~;
#X connect 0 0 107 0;
#X connect 1 0 108 0;
#X connect 2 0 3 0;
#X connect 2 0 17 0;
#X connect 2 0 55 0;
#X connect 3 0 0 0;
#X connect 4 0 88 0;
#X connect 5 0 4 0;
#X connect 5 0 100 0;
#X connect 6 0 8 0;
#X connect 6 0 17 0;
#X connect 7 0 8 1;
#X connect 8 0 9 0;
#X connect 9 0 3 1;
#X connect 10 0 11 0;
#X connect 10 0 17 1;
#X connect 10 0 55 1;
#X connect 11 0 105 0;
#X connect 12 0 96 0;
#X connect 13 0 12 0;
#X connect 13 0 101 0;
#X connect 14 0 15 1;
#X connect 15 0 16 0;
#X connect 16 0 11 1;
#X connect 17 0 36 0;
#X connect 18 0 20 0;
#X connect 18 0 17 1;
#X connect 18 0 15 0;
#X connect 19 0 21 0;
#X connect 20 0 19 1;
#X connect 21 0 114 0;
#X connect 22 0 23 0;
#X connect 22 0 54 0;
#X connect 23 0 18 0;
#X connect 24 0 22 0;
#X connect 25 0 24 0;
#X connect 26 0 27 0;
#X connect 27 0 6 0;
#X connect 28 0 26 0;
#X connect 29 0 28 0;
#X connect 30 0 36 1;
#X connect 31 0 42 0;
#X connect 32 0 31 0;
#X connect 33 0 65 0;
#X connect 33 0 43 0;
#X connect 34 0 58 0;
#X connect 35 0 58 1;
#X connect 36 0 60 1;
#X connect 36 0 114 0;
#X connect 37 0 13 0;
#X connect 37 1 80 0;
#X connect 37 2 75 0;
#X connect 37 3 76 0;
#X connect 38 0 39 0;
#X connect 39 0 79 0;
#X connect 39 1 5 0;
#X connect 39 2 78 0;
#X connect 39 3 77 0;
#X connect 40 0 41 0;
#X connect 41 0 56 0;
#X connect 42 0 33 0;
#X connect 43 0 40 0;
#X connect 44 0 45 0;
#X connect 45 0 112 0;
#X connect 45 0 114 0;
#X connect 46 0 44 0;
#X connect 47 0 48 0;
#X connect 48 0 36 0;
#X connect 49 0 50 0;
#X connect 50 0 57 0;
#X connect 51 0 0 0;
#X connect 51 0 1 0;
#X connect 52 0 53 1;
#X connect 54 0 87 0;
#X connect 55 0 53 0;
#X connect 55 0 106 0;
#X connect 55 0 112 0;
#X connect 56 0 86 0;
#X connect 57 0 86 0;
#X connect 58 0 81 0;
#X connect 59 0 81 1;
#X connect 60 0 97 0;
#X connect 62 0 66 0;
#X connect 62 0 95 0;
#X connect 62 0 117 0;
#X connect 63 0 61 0;
#X connect 63 0 66 1;
#X connect 64 0 74 0;
#X connect 65 0 30 0;
#X connect 66 0 64 0;
#X connect 66 0 38 0;
#X connect 67 0 25 0;
#X connect 67 0 32 0;
#X connect 68 0 29 0;
#X connect 69 0 70 0;
#X connect 69 0 71 0;
#X connect 70 0 95 0;
#X connect 71 0 72 0;
#X connect 72 0 37 0;
#X connect 73 0 69 1;
#X connect 73 1 69 0;
#X connect 73 2 72 1;
#X connect 74 0 63 0;
#X connect 75 0 12 0;
#X connect 75 0 101 0;
#X connect 76 0 12 0;
#X connect 76 0 101 0;
#X connect 77 0 4 0;
#X connect 77 0 100 0;
#X connect 78 0 4 0;
#X connect 78 0 100 0;
#X connect 79 0 4 0;
#X connect 79 0 100 0;
#X connect 80 0 12 0;
#X connect 80 0 101 0;
#X connect 81 0 36 0;
#X connect 81 0 112 0;
#X connect 83 0 82 0;
#X connect 83 0 35 0;
#X connect 83 0 10 0;
#X connect 84 0 34 0;
#X connect 84 0 85 0;
#X connect 84 0 2 0;
#X connect 86 0 112 0;
#X connect 86 0 114 0;
#X connect 87 0 52 0;
#X connect 88 0 84 0;
#X connect 89 0 94 0;
#X connect 90 0 89 0;
#X connect 91 0 89 1;
#X connect 91 0 92 0;
#X connect 93 0 91 0;
#X connect 94 0 93 0;
#X connect 94 1 62 0;
#X connect 95 0 73 0;
#X connect 96 0 83 0;
#X connect 97 0 0 0;
#X connect 97 0 1 0;
#X connect 98 0 99 0;
#X connect 99 0 59 0;
#X connect 100 0 112 0;
#X connect 101 0 114 0;
#X connect 102 0 103 0;
#X connect 103 0 104 0;
#X connect 105 0 1 0;
#X connect 106 0 1 0;
#X connect 107 0 109 0;
#X connect 108 0 109 0;
#X connect 110 0 89 0;
#X connect 111 0 60 0;
#X connect 111 0 119 0;
#X connect 113 0 51 0;
#X connect 115 0 0 0;
#X connect 116 0 1 0;
#X connect 116 0 19 0;
#X connect 116 0 118 0;
#X connect 117 0 46 0;
