#N canvas 154 23 1126 720 12;
#X obj 230 381 *~ 0.1;
#X obj 290 380 *~ 0.1;
#X obj 59 14 osc~;
#X obj 131 124 *~;
#X obj 60 -8 mtof;
#X msg 94 -43 40;
#X msg 129 -43 57;
#X obj 146 39 phasor~ 0.3;
#X obj 184 71 pink~;
#X obj 147 73 min~;
#X obj 147 98 lop~ 40;
#X obj 374 7 osc~;
#X obj 395 127 *~;
#X obj 375 -15 mtof;
#X msg 376 -42 40;
#X msg 438 -42 57;
#X obj 489 24 pink~;
#X obj 452 24 min~;
#X obj 450 46 lop~ 40;
#X obj 242 129 min~;
#X obj 452 -4 phasor~ 0.2;
#X msg 470 -42 52;
#X obj 459 317 *~;
#X obj 508 173 lop~ 40;
#X obj 459 345 *~ 0.8;
#X obj 562 99 random 60;
#X obj 563 125 / 100;
#X obj 562 72 metro 800;
#X obj 563 53 tgl 15 0 empty empty empty 17 7 0 10 #fcfcfc #000000 #000000 0 1;
#X obj 23 93 random 60;
#X obj 24 119 / 100;
#X obj 23 66 metro 800;
#X obj 24 47 tgl 15 0 empty empty empty 17 7 0 10 #fcfcfc #000000 #000000 0 1;
#X obj 299 124 vline~;
#X obj 730 154 metro 800;
#X obj 731 135 tgl 15 0 empty empty empty 17 7 0 10 #fcfcfc #000000 #000000 0 1;
#X obj 731 207 * 10;
#X obj 253 6 phasor~;
#X obj 316 5 phasor~;
#X obj 280 150 vcf~ 20;
#X obj 413 -100 random 4;
#X obj 413 -79 sel 0 1 2 3;
#X msg 407 -43 62;
#X obj 440 -156 metro 3000;
#X obj 413 -168 tgl 15 0 empty empty empty 17 7 0 10 #fcfcfc #000000 #000000 0 1;
#X obj 441 -123 random 6000;
#X msg 164 -41 53;
#X obj 63 -89 random 4;
#X obj 63 -69 sel 0 1 2 3;
#X obj 731 260 vline~;
#X obj 730 181 random 80;
#X obj 731 234 * 20;
#X obj 701 379 *~ 0.8;
#X obj 252 -115 mtof;
#X obj 251 -92 osc~;
#X msg 251 -142 24;
#X obj 684 -35 pink~;
#X obj 683 -11 lop~ 50;
#X obj 828 280 pink~;
#X obj 827 304 lop~ 150;
#X obj 164 321 bp~ 50 2;
#X obj 430 178 vline~;
#X msg 435 153 \$1 300;
#X obj 411 204 vcf~ 10;
#X obj 513 124 * 100;
#X obj 322 181 *~;
#X obj 301 -142 sel 0;
#X obj 703 337 *~;
#X obj 748 340 *~;
#X obj 302 -168 % 3;
#X obj 282 32 *~;
#X obj 217 -33 hsl 128 15 0 1 0 0 empty empty empty -2 -8 0 10 #fcfcfc #000000 #000000 0 1;
#X obj 723 83 hsl 128 15 0 1 0 0 empty empty empty -2 -8 0 10 #fcfcfc #000000 #000000 0 1;
#X obj 62 392 *~;
#X obj 817 374 hsl 128 15 0 1 0 0 empty empty empty -2 -8 0 10 #fcfcfc #000000 #000000 0 1;
#X obj 588 -115 random 4000;
#X floatatom 610 -33 5 0 0 0 - - - 0;
#X floatatom 15 -40 5 0 0 0 - - - 0;
#X obj 358 -90 bng 15 250 50 0 empty empty empty 17 7 0 10 #fcfcfc #000000 #000000;
#X floatatom 534 -90 5 0 0 0 - - - 0;
#X floatatom 176 -86 5 0 0 0 - - - 0;
#X obj 16 149 hsl 128 15 0 1 0 0 empty empty empty -2 -8 0 10 #fcfcfc #000000 #000000 0 1;
#X obj 310 -84 bng 15 250 50 0 empty empty empty 17 7 0 10 #fcfcfc #000000 #000000;
#X obj 134 175 *~ 1;
#X obj 64 425 *~ 1;
#X obj 282 66 *~ 1;
#X obj 17 -140 random 3300;
#X obj 588 -92 % 32;
#X obj 17 -117 % 32;
#X obj 588 -71 + 48;
#X obj 17 -96 + 48;
#X obj 239 248 *~ 1;
#X obj 94 -120 delay 100;
#X obj 176 -110 + 10;
#X obj 176 -152 random 10;
#X obj 176 -132 * 10;
#X msg 304 99 \$1 3000;
#X floatatom 212 -3 5 0 0 0 - - - 0;
#X msg 255 -59 0.2;
#X obj 289 -58 loadbang;
#X obj 23 21 loadbang;
#X floatatom 29 187 5 0 0 0 - - - 0;
#X msg 75 124 0.37;
#X floatatom 728 104 5 0 0 0 - - - 0;
#X msg 720 61 0.582;
#X obj 720 36 loadbang;
#X floatatom 828 402 5 0 0 0 - - - 0;
#X msg 888 341 0.748;
#X obj 917 288 loadbang;
#X obj 578 -146 loadbang;
#X obj 609 43 loadbang;
#X obj 258 418 outlet~;
#X obj 731 -145 inlet;
#X msg 60 -39 62;
#X obj 458 285 delread~ tbtt 200;
#X obj 268 273 delread~ tbtt 120;
#X obj 165 295 delread~ dddd;
#X obj 25 355 delread~ dddd 600;
#X obj 58 238 delwrite~ dddd 600;
#X obj 257 213 delwrite~ tbtt 200;
#X obj 730 283 vd~ dddd;
#X obj 846 -84 inlet~;
#X obj 969 -79 inlet~;
#X connect 0 0 111 0;
#X connect 1 0 111 0;
#X connect 2 0 3 0;
#X connect 2 0 19 0;
#X connect 2 0 65 0;
#X connect 3 0 83 0;
#X connect 4 0 2 0;
#X connect 4 0 37 0;
#X connect 5 0 4 0;
#X connect 6 0 4 0;
#X connect 7 0 9 0;
#X connect 7 0 19 0;
#X connect 8 0 9 1;
#X connect 9 0 10 0;
#X connect 10 0 3 1;
#X connect 11 0 12 0;
#X connect 11 0 19 1;
#X connect 11 0 65 1;
#X connect 12 0 1 0;
#X connect 13 0 11 0;
#X connect 13 0 38 0;
#X connect 14 0 13 0;
#X connect 15 0 13 0;
#X connect 16 0 17 1;
#X connect 17 0 18 0;
#X connect 18 0 12 1;
#X connect 19 0 39 0;
#X connect 20 0 17 0;
#X connect 20 0 19 1;
#X connect 20 0 23 0;
#X connect 21 0 13 0;
#X connect 22 0 24 0;
#X connect 23 0 22 1;
#X connect 24 0 119 0;
#X connect 25 0 26 0;
#X connect 25 0 64 0;
#X connect 26 0 20 0;
#X connect 27 0 25 0;
#X connect 28 0 27 0;
#X connect 29 0 30 0;
#X connect 30 0 7 0;
#X connect 31 0 29 0;
#X connect 32 0 31 0;
#X connect 33 0 39 1;
#X connect 34 0 50 0;
#X connect 35 0 34 0;
#X connect 36 0 96 0;
#X connect 36 0 51 0;
#X connect 37 0 70 0;
#X connect 38 0 70 1;
#X connect 39 0 73 1;
#X connect 39 0 119 0;
#X connect 40 0 41 0;
#X connect 41 0 14 0;
#X connect 41 1 42 0;
#X connect 41 2 15 0;
#X connect 41 3 21 0;
#X connect 42 0 13 0;
#X connect 43 0 45 0;
#X connect 43 0 78 0;
#X connect 43 0 40 0;
#X connect 43 0 92 0;
#X connect 44 0 43 0;
#X connect 45 0 43 1;
#X connect 45 0 69 0;
#X connect 45 0 79 0;
#X connect 46 0 4 0;
#X connect 47 0 48 0;
#X connect 48 0 113 0;
#X connect 48 1 5 0;
#X connect 48 2 6 0;
#X connect 48 3 46 0;
#X connect 49 0 120 0;
#X connect 50 0 36 0;
#X connect 51 0 49 0;
#X connect 52 0 118 0;
#X connect 52 0 119 0;
#X connect 53 0 54 0;
#X connect 54 0 118 0;
#X connect 54 0 119 0;
#X connect 55 0 53 0;
#X connect 56 0 57 0;
#X connect 57 0 39 0;
#X connect 58 0 59 0;
#X connect 59 0 68 0;
#X connect 60 0 0 0;
#X connect 60 0 1 0;
#X connect 61 0 63 1;
#X connect 62 0 61 0;
#X connect 64 0 62 0;
#X connect 65 0 63 0;
#X connect 65 0 91 0;
#X connect 65 0 118 0;
#X connect 66 0 55 0;
#X connect 67 0 52 0;
#X connect 68 0 52 0;
#X connect 69 0 66 0;
#X connect 70 0 85 0;
#X connect 71 0 85 1;
#X connect 71 0 97 0;
#X connect 72 0 84 1;
#X connect 72 0 103 0;
#X connect 73 0 84 0;
#X connect 74 0 67 1;
#X connect 74 0 68 1;
#X connect 74 0 106 0;
#X connect 75 0 87 0;
#X connect 81 0 83 1;
#X connect 81 0 91 1;
#X connect 81 0 101 0;
#X connect 82 0 40 0;
#X connect 82 0 92 0;
#X connect 83 0 0 0;
#X connect 84 0 0 0;
#X connect 84 0 1 0;
#X connect 85 0 39 0;
#X connect 85 0 118 0;
#X connect 86 0 88 0;
#X connect 87 0 89 0;
#X connect 88 0 90 0;
#X connect 89 0 76 0;
#X connect 89 0 13 0;
#X connect 90 0 4 0;
#X connect 90 0 77 0;
#X connect 91 0 1 0;
#X connect 92 0 47 0;
#X connect 92 0 94 0;
#X connect 93 0 80 0;
#X connect 93 0 92 1;
#X connect 94 0 95 0;
#X connect 95 0 93 0;
#X connect 96 0 33 0;
#X connect 98 0 71 0;
#X connect 99 0 98 0;
#X connect 100 0 32 0;
#X connect 100 0 102 0;
#X connect 102 0 81 0;
#X connect 104 0 72 0;
#X connect 105 0 104 0;
#X connect 105 0 35 0;
#X connect 107 0 74 0;
#X connect 108 0 107 0;
#X connect 109 0 45 0;
#X connect 109 0 40 0;
#X connect 109 0 92 0;
#X connect 112 0 40 0;
#X connect 112 0 92 0;
#X connect 113 0 4 0;
#X connect 114 0 1 0;
#X connect 114 0 22 0;
#X connect 115 0 0 0;
#X connect 116 0 60 0;
#X connect 117 0 73 0;
#X connect 120 0 67 0;
#X connect 121 0 118 0;
#X connect 122 0 119 0;
