#N canvas 292 103 988 675 12;
#N canvas 0 23 817 486 FM_synth 0;
#X obj 211 168 osc~;
#X obj 74 246 osc~;
#X obj 76 210 +~;
#X text 115 106 freq;
#X floatatom 173 106 5 0 0 0 - - - 0;
#X text 217 101 harmonicity;
#X floatatom 319 124 5 0 0 0 - - - 0;
#X text 363 103 modulation index;
#X obj 121 149 *~;
#X obj 288 152 *~;
#X obj 208 211 *~;
#X obj 23 56 inlet~;
#X obj 182 70 inlet~;
#X obj 316 79 inlet~;
#X obj 74 281 outlet~;
#X connect 0 0 10 0;
#X connect 1 0 14 0;
#X connect 2 0 1 0;
#X connect 4 0 8 1;
#X connect 6 0 9 1;
#X connect 8 0 0 0;
#X connect 8 0 9 0;
#X connect 9 0 10 1;
#X connect 10 0 2 1;
#X connect 11 0 2 0;
#X connect 11 0 8 0;
#X connect 12 0 8 1;
#X connect 13 0 9 1;
#X restore 57 154 pd FM_synth;
#X floatatom 147 20 5 0 0 0 - - - 0;
#X text 191 15 harmonicity;
#X floatatom 433 29 5 0 0 0 - - - 0;
#X text 472 18 modulation index;
#N canvas 830 40 450 300 env 0;
#X obj 82 31 inlet;
#X obj 82 126 pack 1 3;
#X obj 82 55 bng 15 250 50 0 empty empty empty 17 7 0 10 #fcfcfc #000000 #000000;
#X obj 212 119 pack 0 500;
#X obj 306 31 inlet;
#X floatatom 308 84 5 0 0 0 - - - 0;
#X obj 82 155 line~;
#X obj 81 186 *~;
#X obj 80 214 *~;
#X obj 79 240 outlet~;
#X obj 211 89 delay 10;
#X connect 0 0 2 0;
#X connect 1 0 6 0;
#X connect 2 0 1 0;
#X connect 2 0 10 0;
#X connect 3 0 6 0;
#X connect 4 0 5 0;
#X connect 5 0 3 1;
#X connect 6 0 7 0;
#X connect 6 0 7 1;
#X connect 7 0 8 0;
#X connect 7 0 8 1;
#X connect 8 0 9 0;
#X connect 10 0 3 0;
#X restore 157 86 pd env;
#X floatatom 319 29 5 0 0 0 - - - 0;
#X text 363 18 decay;
#X obj 46 38 mtof;
#X obj 70 79 t f b;
#N canvas 830 40 450 300 env 1;
#X obj 82 31 inlet;
#X obj 82 126 pack 1 3;
#X obj 82 55 bng 15 250 50 0 empty empty empty 17 7 0 10 #fcfcfc #000000 #000000;
#X obj 212 119 pack 0 500;
#X obj 306 31 inlet;
#X floatatom 308 84 5 0 0 0 - - - 0;
#X obj 82 155 line~;
#X obj 81 186 *~;
#X obj 80 214 *~;
#X obj 79 240 outlet~;
#X obj 211 89 delay 10;
#X connect 0 0 2 0;
#X connect 1 0 6 0;
#X connect 2 0 1 0;
#X connect 2 0 10 0;
#X connect 3 0 6 0;
#X connect 4 0 5 0;
#X connect 5 0 3 1;
#X connect 6 0 7 0;
#X connect 6 0 7 1;
#X connect 7 0 8 0;
#X connect 7 0 8 1;
#X connect 8 0 9 0;
#X connect 10 0 3 0;
#X restore 90 215 pd env;
#X floatatom 617 22 5 0 0 0 - - - 0;
#X text 662 15 decay;
#X obj 63 250 *~;
#X obj 156 119 *~;
#X obj 51 -2 inlet;
#X obj 63 285 outlet~;
#X obj 106 12 bng 19 250 50 0 empty empty empty 0 -10 0 12 #fcfcfc #000000 #000000;
#X obj 154 42 inlet harmonicity;
#X obj 312 51 inlet mod_decay;
#X obj 437 53 inlet mod_index;
#X obj 608 50 inlet vol_decay;
#X connect 0 0 13 0;
#X connect 1 0 0 1;
#X connect 3 0 14 1;
#X connect 5 0 14 0;
#X connect 6 0 5 1;
#X connect 8 0 9 0;
#X connect 9 0 0 0;
#X connect 9 1 5 0;
#X connect 9 1 10 0;
#X connect 10 0 13 1;
#X connect 11 0 10 1;
#X connect 13 0 16 0;
#X connect 14 0 0 2;
#X connect 15 0 8 0;
#X connect 17 0 9 0;
#X connect 18 0 0 1;
#X connect 19 0 5 1;
#X connect 20 0 14 1;
#X connect 21 0 10 1;
