#N canvas 0 23 1277 755 10;
#X obj 196 35 audioOnOff;
#X obj 196 11 tgl 15 0 empty empty empty 17 7 0 10 #fcfcfc #000000 #000000 0 1;
#X obj 126 9 loadbang;
#X obj 569 63 dac~;
#N canvas 47 23 1233 678 soundBuffer 0;
#N canvas 0 22 450 278 (subpatch) 0;
#X array speciment1 4.27963e+06 float 2;
#X coords 0 1 4.27963e+06 -1 200 140 1 0 0;
#X restore 16 51 graph;
#N canvas 0 22 450 278 (subpatch) 0;
#X array speciment2 1.37959e+06 float 2;
#X coords 0 1 1.37959e+06 -1 200 140 1 0 0;
#X restore 225 52 graph;
#N canvas 0 22 450 278 (subpatch) 0;
#X array speciment3 1.06314e+06 float 2;
#X coords 0 1 1.06314e+06 -1 200 140 1 0 0;
#X restore 445 53 graph;
#N canvas 0 22 450 278 (subpatch) 0;
#X array speciment4 4.30899e+06 float 2;
#X coords 0 1 4.30899e+06 -1 200 140 1 0 0;
#X restore 653 53 graph;
#X obj 26 544 soundfiler;
#X msg 26 519 read -resize \$1 speciment4;
#X msg 75 496 a_Lehrerin.wav;
#X obj 26 496 symbol;
#X obj 27 447 soundfiler;
#X obj 27 399 symbol;
#X msg 27 422 read -resize \$1 speciment3;
#X obj 26 354 soundfiler;
#X obj 26 306 symbol;
#X msg 26 329 read -resize \$1 speciment2;
#X obj 25 260 soundfiler;
#X msg 74 212 a_Lehrerin.wav;
#X obj 25 212 symbol;
#X msg 25 235 read -resize \$1 speciment1;
#X msg 75 306 a_Verkauferin.wav;
#X msg 76 399 a_Vertraute.wav;
#X obj 216 368 loadbang;
#X connect 5 0 4 0;
#X connect 6 0 7 0;
#X connect 7 0 5 0;
#X connect 9 0 10 0;
#X connect 10 0 8 0;
#X connect 12 0 13 0;
#X connect 13 0 11 0;
#X connect 15 0 16 0;
#X connect 16 0 17 0;
#X connect 17 0 14 0;
#X connect 18 0 12 0;
#X connect 19 0 9 0;
#X connect 20 0 15 0;
#X connect 20 0 18 0;
#X connect 20 0 19 0;
#X restore 25 8 pd soundBuffer;
#X obj 561 34 catch~ mono;
#X obj 127 36 delay 1000;
#N canvas 532 281 699 434 synth 0;
#X obj 10 210 osc~;
#X floatatom 98 159 5 0 0 0 - - - 0;
#X obj 159 40 clip 0 1;
#X obj 63 211 osc~;
#X obj 112 208 osc~;
#X obj 112 189 * 0.56;
#X obj 161 80 int;
#X obj 161 100 change;
#X obj 161 139 mtof;
#X obj 69 158 * 1;
#X obj 508 82 line~;
#X obj 161 118 t a b;
#X obj 62 193 * 1.04;
#X obj 247 108 del 300;
#X obj 155 16 inlet;
#X obj 308 51 < 0;
#X obj 307 85 sel 1;
#X obj 378 82 tgl 16 0 empty empty empty 0 -8 0 10 #fcfcfc #000000 #000000 0 1;
#X obj 507 16 inlet;
#X msg 507 43 \$1 40;
#X obj 342 129 makenote 100 500;
#X obj 344 163 pack 0 0;
#X obj 345 198 string_synth;
#X obj 160 60 scale 0 1 40 70;
#X obj 237 357 *~;
#X obj 243 288 *~ 0.5;
#X msg 189 166 1 10;
#X obj 95 286 *~ 0.4;
#X obj 188 286 *~ 0.2;
#X msg 246 166 0 1000, f 13;
#X obj 313 311 line~;
#X obj 278 385 *~;
#X obj 264 409 throw~ mono;
#X obj 10 229 *~ 0.5;
#X obj 63 230 *~ 0.3;
#X obj 112 229 *~ 0.2;
#X obj 187 238 pluckedString2;
#X connect 0 0 33 0;
#X connect 2 0 23 0;
#X connect 3 0 34 0;
#X connect 4 0 35 0;
#X connect 5 0 4 0;
#X connect 6 0 7 0;
#X connect 6 0 20 0;
#X connect 6 0 36 0;
#X connect 7 0 11 0;
#X connect 8 0 9 0;
#X connect 9 0 1 0;
#X connect 9 0 0 0;
#X connect 9 0 5 0;
#X connect 9 0 12 0;
#X connect 10 0 31 1;
#X connect 11 0 8 0;
#X connect 11 1 26 0;
#X connect 12 0 3 0;
#X connect 13 0 29 0;
#X connect 14 0 2 0;
#X connect 14 0 15 0;
#X connect 15 0 17 0;
#X connect 15 0 16 0;
#X connect 16 0 29 0;
#X connect 18 0 19 0;
#X connect 19 0 10 0;
#X connect 20 0 21 0;
#X connect 20 1 21 1;
#X connect 21 0 22 0;
#X connect 22 0 25 0;
#X connect 23 0 6 0;
#X connect 24 0 31 0;
#X connect 25 0 24 0;
#X connect 26 0 30 0;
#X connect 27 0 24 0;
#X connect 28 0 24 0;
#X connect 29 0 30 0;
#X connect 30 0 24 1;
#X connect 31 0 32 0;
#X connect 33 0 27 0;
#X connect 34 0 27 0;
#X connect 35 0 27 0;
#X connect 36 0 28 0;
#X restore 233 668 pd synth;
#X obj 24 270 r object1;
#X obj 236 273 r object2;
#X obj 654 272 r object4;
#X obj 862 268 r object5;
#X obj 23 298 range_thresh;
#N canvas 175 262 703 516 soundplayer_students1 0;
#X obj 41 27 inlet;
#X obj 43 59 sel 1 0;
#X obj 54 194 readsf~;
#X msg 218 182 open NEILA_perspective/student1.wav;
#X msg 44 115 1;
#X msg 96 136 0;
#X obj 56 266 throw~ mono;
#X obj 95 216 bng 16 250 50 0 empty empty empty 0 -8 0 10 #fcfcfc #000000 #000000;
#X obj 55 236 *~;
#X obj 83 234 line~;
#X msg 121 233 1 10;
#X obj 97 94 t b b;
#X obj 44 93 t b b b;
#X msg 155 233 0 50;
#X obj 98 115 del 50;
#X obj 217 156 cyclone/gate 3 1;
#X msg 229 206 open NEILA_perspective/student2.wav;
#X msg 240 228 open NEILA_perspective/student3.wav;
#X msg 170 85 1;
#X obj 170 148 t a a;
#X obj 170 126 % 3;
#X floatatom 244 133 5 0 0 0 - - - 0;
#X obj 217 132 + 1;
#X obj 170 105 + 1;
#X msg 300 55 clear;
#X obj 384 37 inlet;
#X obj 386 83 t a a;
#X msg 385 61 0;
#X obj 215 305 outlet;
#X msg 209 86 1;
#X obj 209 106 + 1;
#X obj 215 274 t a a;
#X obj 169 62 pipe 4000;
#X connect 0 0 1 0;
#X connect 1 0 12 0;
#X connect 1 1 11 0;
#X connect 2 0 8 0;
#X connect 2 1 7 0;
#X connect 3 0 2 0;
#X connect 4 0 2 0;
#X connect 5 0 2 0;
#X connect 8 0 6 0;
#X connect 9 0 8 1;
#X connect 10 0 9 0;
#X connect 11 0 14 0;
#X connect 11 1 13 0;
#X connect 11 1 24 0;
#X connect 12 0 4 0;
#X connect 12 0 32 0;
#X connect 12 1 10 0;
#X connect 12 2 15 1;
#X connect 13 0 9 0;
#X connect 14 0 5 0;
#X connect 15 0 3 0;
#X connect 15 1 16 0;
#X connect 15 2 17 0;
#X connect 16 0 2 0;
#X connect 17 0 2 0;
#X connect 18 0 23 0;
#X connect 19 0 23 1;
#X connect 19 1 22 0;
#X connect 20 0 19 0;
#X connect 22 0 21 0;
#X connect 22 0 15 0;
#X connect 23 0 20 0;
#X connect 24 0 32 0;
#X connect 25 0 27 0;
#X connect 26 0 22 0;
#X connect 26 1 23 1;
#X connect 26 1 30 1;
#X connect 27 0 26 0;
#X connect 27 0 31 0;
#X connect 29 0 30 0;
#X connect 30 0 31 0;
#X connect 31 0 28 0;
#X connect 31 1 30 1;
#X connect 32 0 18 0;
#X connect 32 0 29 0;
#X restore 442 435 pd soundplayer_students1;
#X obj 235 296 range_thresh;
#N canvas 237 305 720 396 soundplayer_students2 0;
#X obj 41 27 inlet;
#X obj 43 59 sel 1 0;
#X obj 54 194 readsf~;
#X msg 44 115 1;
#X msg 96 136 0;
#X obj 56 266 throw~ mono;
#X obj 95 216 bng 16 250 50 0 empty empty empty 0 -8 0 10 #fcfcfc #000000 #000000;
#X obj 55 236 *~;
#X obj 83 234 line~;
#X msg 121 233 1 10;
#X obj 97 94 t b b;
#X obj 44 93 t b b b;
#X msg 155 233 0 50;
#X obj 98 115 del 50;
#X obj 217 178 cyclone/gate 3 1;
#X msg 170 85 1;
#X obj 170 148 t a a;
#X obj 170 126 % 3;
#X floatatom 244 155 5 0 0 0 - - - 0;
#X obj 217 154 + 1;
#X obj 170 105 + 1;
#X msg 218 201 open NEILA_perspective/student4.wav;
#X msg 229 225 open NEILA_perspective/student5.wav;
#X msg 240 247 open NEILA_perspective/student6.wav;
#X msg 191 58 clear;
#X obj 341 19 inlet;
#X obj 343 65 t a a;
#X msg 342 43 0;
#X obj 215 305 outlet;
#X msg 209 86 1;
#X obj 209 106 + 1;
#X obj 209 126 t a a;
#X obj 116 59 pipe 4000;
#X connect 0 0 1 0;
#X connect 1 0 11 0;
#X connect 1 1 10 0;
#X connect 2 0 7 0;
#X connect 2 1 6 0;
#X connect 3 0 2 0;
#X connect 4 0 2 0;
#X connect 7 0 5 0;
#X connect 8 0 7 1;
#X connect 9 0 8 0;
#X connect 10 0 13 0;
#X connect 10 1 12 0;
#X connect 10 1 24 0;
#X connect 11 0 3 0;
#X connect 11 0 32 0;
#X connect 11 1 9 0;
#X connect 11 2 14 1;
#X connect 12 0 8 0;
#X connect 13 0 4 0;
#X connect 14 0 21 0;
#X connect 14 1 22 0;
#X connect 14 2 23 0;
#X connect 15 0 20 0;
#X connect 16 0 20 1;
#X connect 16 1 19 0;
#X connect 17 0 16 0;
#X connect 19 0 18 0;
#X connect 19 0 14 0;
#X connect 20 0 17 0;
#X connect 21 0 2 0;
#X connect 22 0 2 0;
#X connect 23 0 2 0;
#X connect 24 0 32 0;
#X connect 25 0 27 0;
#X connect 26 0 19 0;
#X connect 26 1 20 1;
#X connect 26 1 30 1;
#X connect 27 0 26 0;
#X connect 29 0 30 0;
#X connect 30 0 31 0;
#X connect 31 0 28 0;
#X connect 31 1 30 1;
#X connect 32 0 15 0;
#X connect 32 0 29 0;
#X restore 234 438 pd soundplayer_students2;
#X obj 443 294 range_thresh;
#X obj 655 294 range_thresh;
#X obj 863 290 range_thresh;
#N canvas 257 328 560 341 soundplayer_lehrerin 0;
#X obj 41 27 inlet;
#X obj 43 59 sel 1 0;
#X obj 54 194 readsf~;
#X msg 44 115 1;
#X msg 96 136 0;
#X obj 56 266 throw~ mono;
#X obj 95 216 bng 16 250 50 0 empty empty empty 0 -8 0 10 #fcfcfc #000000 #000000;
#X obj 55 236 *~;
#X obj 83 234 line~;
#X msg 121 233 1 10;
#X obj 97 94 t b b;
#X obj 44 93 t b b b;
#X msg 155 233 0 50;
#X obj 98 115 del 50;
#X msg 170 85 1;
#X obj 170 148 t a a;
#X floatatom 244 151 5 0 0 0 - - - 0;
#X obj 217 150 + 1;
#X obj 170 105 + 1;
#X msg 218 200 open NEILA_perspective/lehrerin1.wav;
#X msg 225 225 open NEILA_perspective/lehrerin2.wav;
#X obj 217 174 cyclone/gate 3 1;
#X obj 170 126 % 3;
#X msg 230 252 open NEILA_perspective/lehrerin3.wav;
#X msg 190 59 clear;
#X obj 341 19 inlet;
#X obj 343 65 t a a;
#X msg 342 43 0;
#X obj 215 305 outlet;
#X msg 209 86 1;
#X obj 209 106 + 1;
#X obj 208 125 t a a;
#X obj 121 57 pipe 4000;
#X connect 0 0 1 0;
#X connect 1 0 11 0;
#X connect 1 1 10 0;
#X connect 2 0 7 0;
#X connect 2 1 6 0;
#X connect 3 0 2 0;
#X connect 4 0 2 0;
#X connect 7 0 5 0;
#X connect 8 0 7 1;
#X connect 9 0 8 0;
#X connect 10 0 13 0;
#X connect 10 1 12 0;
#X connect 10 1 24 0;
#X connect 11 0 3 0;
#X connect 11 0 32 0;
#X connect 11 1 9 0;
#X connect 11 2 21 1;
#X connect 12 0 8 0;
#X connect 13 0 4 0;
#X connect 14 0 18 0;
#X connect 15 0 18 1;
#X connect 15 1 17 0;
#X connect 17 0 16 0;
#X connect 17 0 21 0;
#X connect 18 0 22 0;
#X connect 19 0 2 0;
#X connect 20 0 2 0;
#X connect 21 0 19 0;
#X connect 21 1 20 0;
#X connect 21 2 23 0;
#X connect 22 0 15 0;
#X connect 23 0 2 0;
#X connect 24 0 32 0;
#X connect 25 0 27 0;
#X connect 26 0 17 0;
#X connect 26 1 18 1;
#X connect 26 1 30 1;
#X connect 27 0 26 0;
#X connect 29 0 30 0;
#X connect 30 0 31 0;
#X connect 31 0 28 0;
#X connect 31 1 30 1;
#X connect 32 0 14 0;
#X connect 32 0 29 0;
#X restore 24 438 pd soundplayer_lehrerin;
#N canvas 257 328 720 396 soundplayer_freundin 0;
#X obj 41 27 inlet;
#X obj 43 59 sel 1 0;
#X obj 54 194 readsf~;
#X msg 44 115 1;
#X msg 96 136 0;
#X obj 56 266 throw~ mono;
#X obj 95 216 bng 16 250 50 0 empty empty empty 0 -8 0 10 #fcfcfc #000000 #000000;
#X obj 55 236 *~;
#X obj 83 234 line~;
#X msg 121 233 1 10;
#X obj 97 94 t b b;
#X obj 44 93 t b b b;
#X msg 155 233 0 50;
#X obj 98 115 del 50;
#X msg 170 85 1;
#X obj 170 148 t a a;
#X floatatom 244 153 5 0 0 0 - - - 0;
#X obj 217 152 + 1;
#X obj 170 105 + 1;
#X msg 218 199 open NEILA_perspective/Freundin.wav;
#X msg 229 223 open NEILA_perspective/Bibliothekarin.wav;
#X msg 172 54 clear;
#X obj 341 19 inlet;
#X obj 343 65 t a a;
#X msg 342 43 0;
#X obj 215 305 outlet;
#X msg 209 86 1;
#X obj 209 106 + 1;
#X obj 209 127 t a a;
#X obj 104 59 pipe 4000;
#X obj 217 176 cyclone/gate 2 1;
#X obj 170 126 % 2;
#X connect 0 0 1 0;
#X connect 1 0 11 0;
#X connect 1 1 10 0;
#X connect 2 0 7 0;
#X connect 2 1 6 0;
#X connect 3 0 2 0;
#X connect 4 0 2 0;
#X connect 7 0 5 0;
#X connect 8 0 7 1;
#X connect 9 0 8 0;
#X connect 10 0 13 0;
#X connect 10 1 12 0;
#X connect 10 1 21 0;
#X connect 11 0 3 0;
#X connect 11 0 29 0;
#X connect 11 1 9 0;
#X connect 11 2 30 1;
#X connect 12 0 8 0;
#X connect 13 0 4 0;
#X connect 14 0 18 0;
#X connect 15 0 18 1;
#X connect 15 1 17 0;
#X connect 17 0 16 0;
#X connect 17 0 30 0;
#X connect 18 0 31 0;
#X connect 19 0 2 0;
#X connect 20 0 2 0;
#X connect 21 0 29 0;
#X connect 22 0 24 0;
#X connect 23 0 17 0;
#X connect 23 1 18 1;
#X connect 23 1 27 1;
#X connect 24 0 23 0;
#X connect 26 0 27 0;
#X connect 27 0 28 0;
#X connect 28 0 25 0;
#X connect 28 1 27 1;
#X connect 29 0 14 0;
#X connect 29 0 26 0;
#X connect 30 0 19 0;
#X connect 30 1 20 0;
#X connect 31 0 15 0;
#X restore 655 434 pd soundplayer_freundin;
#X obj 33 514 r actor1;
#X obj 243 507 r actor2;
#X obj 236 537 range_setter;
#X obj 33 542 range_thresh;
#X obj 305 669 hsl 136 16 0 1 0 0 empty empty empty -2 -8 0 10 #fcfcfc #000000 #000000 0 1;
#X obj 604 11 catch~ r;
#X obj 546 12 catch~ l;
#X obj 515 624 throw~ mono;
#X obj 670 577 hsl 136 16 0 1 0 0 empty empty empty -2 -8 0 10 #fcfcfc #000000 #000000 0 1;
#X obj 575 596 line~;
#X msg 614 596 \$1 100;
#X floatatom 202 683 5 0 14 0 - - - 0;
#X obj 177 684 int;
#X obj 155 684 bng 16 250 50 0 empty empty empty 0 -8 0 10 #fcfcfc #000000 #000000;
#X floatatom 118 686 5 0 0 0 - - - 0;
#X obj 29 710 throw~ mono;
#X obj 108 709 hsl 136 16 0 1 0 0 empty empty empty -2 -8 0 10 #fcfcfc #000000 #000000 0 1;
#X obj 34 688 *~;
#N canvas 173 212 450 300 lastschene 0;
#X obj 54 194 readsf~;
#X msg 44 115 1;
#X obj 56 266 throw~ mono;
#X obj 55 236 *~;
#X obj 83 234 line~;
#X msg 121 233 1 10;
#X obj 44 93 t b b b;
#X msg 155 233 0 50;
#X obj 49 43 inlet;
#X obj 217 46 inlet;
#X obj 226 89 t b b;
#X msg 231 128 0;
#X msg 218 179 open NEILA_perspective/neilaDiaryfinal.wav;
#X connect 0 0 3 0;
#X connect 1 0 0 0;
#X connect 3 0 2 0;
#X connect 4 0 3 1;
#X connect 5 0 4 0;
#X connect 6 0 1 0;
#X connect 6 1 5 0;
#X connect 6 2 12 0;
#X connect 7 0 4 0;
#X connect 8 0 6 0;
#X connect 9 0 10 0;
#X connect 10 0 7 0;
#X connect 10 1 11 0;
#X connect 11 0 0 0;
#X connect 12 0 0 0;
#X restore 1130 477 pd lastschene;
#X obj 1129 445 bng 16 250 50 0 empty empty empty 0 -8 0 10 #fcfcfc #000000 #000000;
#X obj 1203 446 bng 16 250 50 0 empty empty empty 0 -8 0 10 #fcfcfc #000000 #000000;
#X obj 25 74 r speciment1;
#X obj 248 73 r speciment2;
#X obj 463 72 r speciment3;
#X obj 681 71 r speciment4;
#X obj 26 94 range_thresh;
#N canvas 452 113 825 440 soundplayer_Objekt_Gras 1;
#X obj 41 27 inlet;
#X obj 48 273 throw~ mono;
#X obj 39 55 sel 1 0;
#X obj 50 190 readsf~;
#X msg 40 111 1;
#X msg 92 132 0;
#X obj 100 190 bng 16 250 50 0 empty empty empty 0 -8 0 10 #fcfcfc #000000 #000000;
#X obj 51 232 *~;
#X obj 79 230 line~;
#X msg 117 229 1 10;
#X obj 93 90 t b b;
#X obj 40 89 t b b b;
#X msg 151 229 0 50;
#X obj 94 111 del 50;
#X obj 213 152 cyclone/gate 3 1;
#X msg 166 81 1;
#X obj 166 144 t a a;
#X floatatom 240 129 5 0 0 0 - - - 0;
#X obj 213 128 + 1;
#X obj 166 101 + 1;
#X msg 296 51 clear;
#X msg 215 212 open 1SiriSounds/Objekt_Gras.wav;
#X msg 215 237 open 1SiriSounds/neila_mix1.wav;
#X msg 214 262 open 1SiriSounds/Objekt_Gras.wav;
#X obj 341 19 inlet;
#X obj 343 65 t a a;
#X msg 342 43 0;
#X obj 214 182 t b b;
#X msg 210 21 10000;
#X obj 253 181 t b b;
#X msg 253 21 2000;
#X obj 167 46 pipe 10000;
#X obj 192 344 outlet;
#X obj 23 140 bng 16 250 50 0 empty empty empty 0 -8 0 10 #fcfcfc #000000 #000000;
#X connect 0 0 2 0;
#X connect 2 0 11 0;
#X connect 2 1 10 0;
#X connect 3 0 7 0;
#X connect 3 1 6 0;
#X connect 4 0 3 0;
#X connect 4 0 33 0;
#X connect 5 0 3 0;
#X connect 6 0 15 0;
#X connect 7 0 1 0;
#X connect 8 0 7 1;
#X connect 9 0 8 0;
#X connect 10 0 13 0;
#X connect 10 1 12 0;
#X connect 10 1 20 0;
#X connect 11 0 4 0;
#X connect 11 0 31 0;
#X connect 11 1 9 0;
#X connect 11 2 14 1;
#X connect 12 0 8 0;
#X connect 13 0 5 0;
#X connect 14 0 27 0;
#X connect 14 1 29 0;
#X connect 14 2 23 0;
#X connect 15 0 19 0;
#X connect 16 0 19 1;
#X connect 16 1 18 0;
#X connect 18 0 17 0;
#X connect 18 0 14 0;
#X connect 18 0 32 0;
#X connect 19 0 16 0;
#X connect 20 0 31 0;
#X connect 21 0 3 0;
#X connect 22 0 3 0;
#X connect 23 0 3 0;
#X connect 24 0 26 0;
#X connect 25 0 18 0;
#X connect 25 1 19 1;
#X connect 26 0 25 0;
#X connect 27 0 21 0;
#X connect 27 1 28 0;
#X connect 28 0 31 1;
#X connect 29 0 22 0;
#X connect 29 1 30 0;
#X connect 30 0 31 1;
#X restore 26 250 pd soundplayer_Objekt_Gras;
#X obj 241 93 range_thresh;
#X obj 459 92 range_thresh;
#X obj 672 88 range_thresh;
#X obj 1009 27 bng 16 250 50 0 empty empty empty 0 -8 0 10 #fcfcfc #000000 #000000;
#X obj 1069 26 bng 16 250 50 0 empty empty empty 0 -8 0 10 #fcfcfc #000000 #000000;
#N canvas 173 212 450 300 intro 0;
#X obj 54 194 readsf~;
#X msg 44 115 1;
#X obj 56 266 throw~ mono;
#X obj 55 236 *~;
#X obj 83 234 line~;
#X msg 121 233 1 10;
#X obj 44 93 t b b b;
#X msg 155 233 0 50;
#X obj 49 43 inlet;
#X obj 217 46 inlet;
#X obj 226 89 t b b;
#X msg 231 128 0;
#X msg 218 179 open 1SiriSounds/Intro.wav;
#X obj 286 234 outlet;
#X connect 0 0 3 0;
#X connect 0 1 13 0;
#X connect 1 0 0 0;
#X connect 3 0 2 0;
#X connect 4 0 3 1;
#X connect 5 0 4 0;
#X connect 6 0 1 0;
#X connect 6 1 5 0;
#X connect 6 2 12 0;
#X connect 7 0 4 0;
#X connect 8 0 6 0;
#X connect 9 0 10 0;
#X connect 10 0 7 0;
#X connect 10 1 11 0;
#X connect 11 0 0 0;
#X connect 12 0 0 0;
#X restore 1009 53 pd intro;
#X text 1029 26 play;
#X text 1090 25 stop;
#X obj 1009 85 bng 16 250 50 0 empty empty empty 0 -8 0 10 #fcfcfc #000000 #000000;
#X obj 1069 84 bng 16 250 50 0 empty empty empty 0 -8 0 10 #fcfcfc #000000 #000000;
#X text 1029 84 play;
#X text 1090 83 stop;
#N canvas 173 212 450 300 Outro 0;
#X obj 54 194 readsf~;
#X msg 44 115 1;
#X obj 56 266 throw~ mono;
#X obj 55 236 *~;
#X obj 83 234 line~;
#X msg 121 233 1 10;
#X obj 44 93 t b b b;
#X msg 155 233 0 50;
#X obj 49 43 inlet;
#X obj 217 46 inlet;
#X obj 226 89 t b b;
#X msg 231 128 0;
#X msg 218 179 open 1SiriSounds/Outro.wav;
#X connect 0 0 3 0;
#X connect 1 0 0 0;
#X connect 3 0 2 0;
#X connect 4 0 3 1;
#X connect 5 0 4 0;
#X connect 6 0 1 0;
#X connect 6 1 5 0;
#X connect 6 2 12 0;
#X connect 7 0 4 0;
#X connect 8 0 6 0;
#X connect 9 0 10 0;
#X connect 10 0 7 0;
#X connect 10 1 11 0;
#X connect 11 0 0 0;
#X connect 12 0 0 0;
#X restore 1009 111 pd Outro;
#X obj 1011 135 bng 16 250 50 0 empty empty empty 0 -8 0 10 #fcfcfc #000000 #000000;
#X obj 1071 134 bng 16 250 50 0 empty empty empty 0 -8 0 10 #fcfcfc #000000 #000000;
#X text 1031 134 play;
#X text 1092 133 stop;
#N canvas 173 212 450 300 01Hinweis 0;
#X obj 54 194 readsf~;
#X msg 44 115 1;
#X obj 56 266 throw~ mono;
#X obj 55 236 *~;
#X obj 83 234 line~;
#X msg 121 233 1 10;
#X obj 44 93 t b b b;
#X msg 155 233 0 50;
#X obj 49 43 inlet;
#X obj 217 46 inlet;
#X obj 226 89 t b b;
#X msg 231 128 0;
#X msg 218 179 open 1SiriSounds/01Hinweis.wav;
#X obj 346 257 outlet;
#X connect 0 0 3 0;
#X connect 0 1 13 0;
#X connect 1 0 0 0;
#X connect 3 0 2 0;
#X connect 4 0 3 1;
#X connect 5 0 4 0;
#X connect 6 0 1 0;
#X connect 6 1 5 0;
#X connect 6 2 12 0;
#X connect 7 0 4 0;
#X connect 8 0 6 0;
#X connect 9 0 10 0;
#X connect 10 0 7 0;
#X connect 10 1 11 0;
#X connect 11 0 0 0;
#X connect 12 0 0 0;
#X restore 1011 161 pd 01Hinweis;
#X obj 1012 187 bng 16 250 50 0 empty empty empty 0 -8 0 10 #fcfcfc #000000 #000000;
#X obj 1072 186 bng 16 250 50 0 empty empty empty 0 -8 0 10 #fcfcfc #000000 #000000;
#X text 1032 186 play;
#X text 1093 185 stop;
#X obj 1014 235 bng 16 250 50 0 empty empty empty 0 -8 0 10 #fcfcfc #000000 #000000;
#X obj 1073 235 bng 16 250 50 0 empty empty empty 0 -8 0 10 #fcfcfc #000000 #000000;
#X text 1033 235 play;
#X text 1094 234 stop;
#N canvas 173 212 450 300 02Hinweis 0;
#X obj 54 194 readsf~;
#X msg 44 115 1;
#X obj 56 266 throw~ mono;
#X obj 55 236 *~;
#X obj 83 234 line~;
#X msg 121 233 1 10;
#X obj 44 93 t b b b;
#X msg 155 233 0 50;
#X obj 49 43 inlet;
#X obj 217 46 inlet;
#X obj 226 89 t b b;
#X msg 231 128 0;
#X msg 218 179 open 1SiriSounds/02Hinweis.wav;
#X obj 230 240 outlet;
#X connect 0 0 3 0;
#X connect 0 1 13 0;
#X connect 1 0 0 0;
#X connect 3 0 2 0;
#X connect 4 0 3 1;
#X connect 5 0 4 0;
#X connect 6 0 1 0;
#X connect 6 1 5 0;
#X connect 6 2 12 0;
#X connect 7 0 4 0;
#X connect 8 0 6 0;
#X connect 9 0 10 0;
#X connect 10 0 7 0;
#X connect 10 1 11 0;
#X connect 11 0 0 0;
#X connect 12 0 0 0;
#X restore 1012 213 pd 02Hinweis;
#N canvas 173 212 450 300 03Hinweis 0;
#X obj 54 194 readsf~;
#X msg 44 115 1;
#X obj 56 266 throw~ mono;
#X obj 55 236 *~;
#X obj 83 234 line~;
#X msg 121 233 1 10;
#X obj 44 93 t b b b;
#X msg 155 233 0 50;
#X obj 49 43 inlet;
#X obj 217 46 inlet;
#X obj 226 89 t b b;
#X msg 231 128 0;
#X msg 218 179 open 1SiriSounds/03Hinweis.wav;
#X obj 278 262 outlet;
#X connect 0 0 3 0;
#X connect 0 1 13 0;
#X connect 1 0 0 0;
#X connect 3 0 2 0;
#X connect 4 0 3 1;
#X connect 5 0 4 0;
#X connect 6 0 1 0;
#X connect 6 1 5 0;
#X connect 6 2 12 0;
#X connect 7 0 4 0;
#X connect 8 0 6 0;
#X connect 9 0 10 0;
#X connect 10 0 7 0;
#X connect 10 1 11 0;
#X connect 11 0 0 0;
#X connect 12 0 0 0;
#X restore 1014 260 pd 03Hinweis;
#X obj 444 270 r object3;
#N canvas 202 56 1008 474 rcp_communication 0;
#X obj 28 120 rcp.client;
#X obj 29 141 route list;
#X obj 28 160 route update;
#X msg 103 119 close;
#X obj 26 180 route sensor1 sensor2 sensor3 sensor4;
#X msg 28 96 open ws://192.168.234.50:10000;
#X obj 263 121 rcp.client;
#X obj 264 142 route list;
#X obj 263 161 route update;
#X msg 338 120 close;
#X obj 261 181 route sensor1 sensor2 sensor3;
#X obj 25 202 s speciment1;
#X obj 80 222 s speciment2;
#X obj 135 201 s speciment3;
#X obj 190 221 s speciment4;
#X obj 261 202 s object1;
#X obj 320 221 s object2;
#X obj 459 122 rcp.client;
#X obj 460 143 route list;
#X obj 459 162 route update;
#X msg 534 121 close;
#X obj 457 182 route sensor1 sensor2 sensor3;
#X msg 459 98 open ws://192.168.234.48:10000;
#X obj 457 203 s object4;
#X obj 516 222 s object5;
#X obj 660 123 rcp.client;
#X obj 661 144 route list;
#X obj 660 163 route update;
#X msg 735 122 close;
#X obj 658 183 route sensor1 sensor2 sensor3;
#X obj 854 122 rcp.client;
#X obj 855 143 route list;
#X obj 854 162 route update;
#X msg 929 121 close;
#X obj 852 182 route sensor1 sensor2 sensor3;
#X obj 703 204 s actor1;
#X obj 948 203 s actor2;
#X msg 263 97 open ws://192.168.234.46:10000;
#X obj 572 204 s object3;
#X obj 45 30 inlet;
#X obj 45 51 t b;
#X obj 266 26 inlet;
#X obj 266 47 t b;
#X obj 468 25 inlet;
#X obj 468 46 t b;
#X obj 667 18 inlet;
#X obj 667 39 t b;
#X obj 864 23 inlet;
#X obj 864 44 t b;
#X msg 660 99 open ws://192.168.234.52:10000;
#X msg 889 76 open ws://192.168.234.53:10000;
#X msg 854 98 open ws://192.168.234.53:10000;
#X connect 0 0 1 0;
#X connect 1 0 2 0;
#X connect 2 0 4 0;
#X connect 3 0 0 0;
#X connect 4 0 11 0;
#X connect 4 1 12 0;
#X connect 4 2 13 0;
#X connect 4 3 14 0;
#X connect 5 0 0 0;
#X connect 6 0 7 0;
#X connect 7 0 8 0;
#X connect 8 0 10 0;
#X connect 9 0 6 0;
#X connect 10 0 15 0;
#X connect 10 1 16 0;
#X connect 17 0 18 0;
#X connect 18 0 19 0;
#X connect 19 0 21 0;
#X connect 20 0 17 0;
#X connect 21 0 23 0;
#X connect 21 1 24 0;
#X connect 21 2 38 0;
#X connect 22 0 17 0;
#X connect 25 0 26 0;
#X connect 26 0 27 0;
#X connect 27 0 29 0;
#X connect 28 0 25 0;
#X connect 29 1 35 0;
#X connect 30 0 31 0;
#X connect 31 0 32 0;
#X connect 32 0 34 0;
#X connect 33 0 30 0;
#X connect 34 2 36 0;
#X connect 37 0 6 0;
#X connect 39 0 40 0;
#X connect 40 0 5 0;
#X connect 41 0 42 0;
#X connect 42 0 37 0;
#X connect 43 0 44 0;
#X connect 44 0 22 0;
#X connect 45 0 46 0;
#X connect 46 0 49 0;
#X connect 47 0 48 0;
#X connect 48 0 51 0;
#X connect 49 0 25 0;
#X connect 51 0 30 0;
#X restore 279 40 pd rcp_communication;
#X f 29;
#X obj 279 11 bng 16 250 50 0 empty empty empty 0 -8 0 10 #fcfcfc #000000 #000000;
#X obj 321 11 bng 16 250 50 0 empty empty empty 0 -8 0 10 #fcfcfc #000000 #000000;
#X obj 363 11 bng 16 250 50 0 empty empty empty 0 -8 0 10 #fcfcfc #000000 #000000;
#X obj 407 11 bng 16 250 50 0 empty empty empty 0 -8 0 10 #fcfcfc #000000 #000000;
#X obj 450 11 bng 16 250 50 0 empty empty empty 0 -8 0 10 #fcfcfc #000000 #000000;
#X obj 877 182 hradio 16 1 0 3 empty empty empty 0 -8 0 10 #fcfcfc #000000 #000000 0;
#N canvas 320 373 610 403 noise 0;
#X obj 64 285 throw~ mono;
#X obj 62 260 *~;
#X obj 114 213 line~;
#X msg 141 180 0 10;
#X obj 97 109 t b b;
#X obj 94 20 inlet;
#X obj 98 57 sel 1 0;
#X msg 93 180 0.1 10;
#X obj 27 177 pink~;
#X connect 1 0 0 0;
#X connect 2 0 1 1;
#X connect 3 0 2 0;
#X connect 4 0 7 0;
#X connect 5 0 6 0;
#X connect 6 0 4 0;
#X connect 6 1 3 0;
#X connect 7 0 2 0;
#X connect 8 0 1 0;
#X restore 1063 430 pd noise;
#X obj 874 546 drone~;
#X obj 870 591 throw~ mono;
#X obj 947 590 hsl 136 16 0 1 0 0 empty empty empty -2 -8 0 10 #fcfcfc #000000 #000000 0 1;
#X obj 900 570 line~;
#X msg 944 609 \$1 100;
#X obj 874 525 bng 16 250 50 0 empty empty empty 0 -8 0 10 #fcfcfc #000000 #000000;
#X obj 1143 514 bng 16 250 50 0 empty empty empty 0 -8 0 10 #fcfcfc #000000 #000000;
#X obj 1182 515 bng 16 250 50 0 empty empty empty 0 -8 0 10 #fcfcfc #000000 #000000;
#X text 1133 498 play;
#X text 1172 498 stop;
#N canvas 173 212 450 300 end1 0;
#X obj 54 194 readsf~;
#X msg 44 115 1;
#X obj 56 266 throw~ mono;
#X obj 55 236 *~;
#X obj 83 234 line~;
#X msg 121 233 1 10;
#X obj 44 93 t b b b;
#X msg 155 233 0 50;
#X obj 49 43 inlet;
#X obj 217 46 inlet;
#X obj 226 89 t b b;
#X msg 231 128 0;
#X msg 218 179 open NEILA_perspective/ende1.wav;
#X connect 0 0 3 0;
#X connect 1 0 0 0;
#X connect 3 0 2 0;
#X connect 4 0 3 1;
#X connect 5 0 4 0;
#X connect 6 0 1 0;
#X connect 6 1 5 0;
#X connect 6 2 12 0;
#X connect 7 0 4 0;
#X connect 8 0 6 0;
#X connect 9 0 10 0;
#X connect 10 0 7 0;
#X connect 10 1 11 0;
#X connect 11 0 0 0;
#X connect 12 0 0 0;
#X restore 1143 540 pd end1;
#X obj 1143 563 bng 16 250 50 0 empty empty empty 0 -8 0 10 #fcfcfc #000000 #000000;
#X obj 1182 563 bng 16 250 50 0 empty empty empty 0 -8 0 10 #fcfcfc #000000 #000000;
#N canvas 173 212 450 300 end2 0;
#X obj 54 194 readsf~;
#X msg 44 115 1;
#X obj 56 266 throw~ mono;
#X obj 55 236 *~;
#X obj 83 234 line~;
#X msg 121 233 1 10;
#X obj 44 93 t b b b;
#X msg 155 233 0 50;
#X obj 49 43 inlet;
#X obj 217 46 inlet;
#X obj 226 89 t b b;
#X msg 231 128 0;
#X msg 218 179 open NEILA_perspective/ende2.wav;
#X connect 0 0 3 0;
#X connect 1 0 0 0;
#X connect 3 0 2 0;
#X connect 4 0 3 1;
#X connect 5 0 4 0;
#X connect 6 0 1 0;
#X connect 6 1 5 0;
#X connect 6 2 12 0;
#X connect 7 0 4 0;
#X connect 8 0 6 0;
#X connect 9 0 10 0;
#X connect 10 0 7 0;
#X connect 10 1 11 0;
#X connect 11 0 0 0;
#X connect 12 0 0 0;
#X restore 1143 589 pd end2;
#X obj 1144 613 bng 16 250 50 0 empty empty empty 0 -8 0 10 #fcfcfc #000000 #000000;
#X obj 1182 615 bng 16 250 50 0 empty empty empty 0 -8 0 10 #fcfcfc #000000 #000000;
#N canvas 173 212 450 300 end3 0;
#X obj 54 194 readsf~;
#X msg 44 115 1;
#X obj 56 266 throw~ mono;
#X obj 55 236 *~;
#X obj 83 234 line~;
#X msg 121 233 1 10;
#X obj 47 81 t b b b;
#X msg 155 233 0 50;
#X obj 49 43 inlet;
#X obj 217 46 inlet;
#X obj 226 89 t b b;
#X msg 231 128 0;
#X msg 214 174 open NEILA_perspective/ende3.wav;
#X connect 0 0 3 0;
#X connect 1 0 0 0;
#X connect 3 0 2 0;
#X connect 4 0 3 1;
#X connect 5 0 4 0;
#X connect 6 0 1 0;
#X connect 6 1 5 0;
#X connect 6 2 12 0;
#X connect 7 0 4 0;
#X connect 8 0 6 0;
#X connect 9 0 10 0;
#X connect 10 0 7 0;
#X connect 10 1 11 0;
#X connect 11 0 0 0;
#X connect 12 0 0 0;
#X restore 1144 639 pd end3;
#X obj 1148 668 bng 16 250 50 0 empty empty empty 0 -8 0 10 #fcfcfc #000000 #000000;
#X obj 1186 670 bng 16 250 50 0 empty empty empty 0 -8 0 10 #fcfcfc #000000 #000000;
#N canvas 173 212 450 300 end4 0;
#X obj 54 194 readsf~;
#X msg 44 115 1;
#X obj 56 266 throw~ mono;
#X obj 55 236 *~;
#X obj 83 234 line~;
#X msg 121 233 1 10;
#X obj 47 81 t b b b;
#X msg 155 233 0 50;
#X obj 49 43 inlet;
#X obj 217 46 inlet;
#X obj 226 89 t b b;
#X msg 231 128 0;
#X msg 214 174 open NEILA_perspective/ende4.wav;
#X connect 0 0 3 0;
#X connect 1 0 0 0;
#X connect 3 0 2 0;
#X connect 4 0 3 1;
#X connect 5 0 4 0;
#X connect 6 0 1 0;
#X connect 6 1 5 0;
#X connect 6 2 12 0;
#X connect 7 0 4 0;
#X connect 8 0 6 0;
#X connect 9 0 10 0;
#X connect 10 0 7 0;
#X connect 10 1 11 0;
#X connect 11 0 0 0;
#X connect 12 0 0 0;
#X restore 1148 694 pd end4;
#X obj 509 555 tgl 16 0 empty empty empty 0 -8 0 10 #fcfcfc #000000 #000000 0 1;
#N canvas 573 162 450 300 jana_base 0;
#N canvas 0 23 569 378 many_notes 0;
#X obj 37 37 inlet;
#X obj 42 317 outlet;
#X obj 37 96 f 0;
#X obj 36 138 % 8;
#X floatatom 37 212 5 0 0 0 - - - 0;
#X obj 37 117 + 1;
#X floatatom 37 159 5 0 0 0 - - - 0;
#X obj 185 80 loadbang;
#X obj 375 26 inlet;
#X obj 37 58 metro 170;
#X obj 37 239 - 0;
#X obj 39 278 clip 0 5000;
#X msg 183 105 \; pitchesA 0 60 67 62 58 63 70 72 65;
#X obj 179 150 table pitchesA;
#X obj 37 188 tabread pitchesA;
#X connect 0 0 9 0;
#X connect 2 0 5 0;
#X connect 3 0 2 1;
#X connect 3 0 6 0;
#X connect 4 0 10 0;
#X connect 5 0 3 0;
#X connect 6 0 14 0;
#X connect 7 0 12 0;
#X connect 8 0 10 1;
#X connect 9 0 2 0;
#X connect 10 0 11 0;
#X connect 11 0 1 0;
#X connect 14 0 4 0;
#X restore 53 73 pd many_notes;
#X obj 111 158 FMM, f 15;
#X floatatom 100 96 5 0 0 0 - - - 0;
#X text 113 112 harmonicity;
#X floatatom 165 136 5 0 0 0 - - - 0;
#X text 200 115 modulation index;
#X floatatom 139 95 5 0 0 0 - - - 0;
#X text 198 100 decay;
#X floatatom 199 138 5 0 0 0 - - - 0;
#X msg 179 81 5;
#X msg 215 82 103;
#X msg 247 84 41;
#X msg 277 86 104;
#X obj 187 59 loadbang;
#X obj 44 4 inlet;
#X obj 104 221 outlet~;
#X obj 129 8 inlet;
#X connect 0 0 1 0;
#X connect 1 0 15 0;
#X connect 2 0 1 1;
#X connect 4 0 1 3;
#X connect 6 0 1 2;
#X connect 8 0 1 4;
#X connect 9 0 2 0;
#X connect 10 0 6 0;
#X connect 11 0 4 0;
#X connect 12 0 8 0;
#X connect 13 0 9 0;
#X connect 13 0 10 0;
#X connect 13 0 11 0;
#X connect 13 0 12 0;
#X connect 14 0 0 0;
#X connect 16 0 0 1;
#X restore 512 574 pd jana_base;
#X obj 513 597 *~;
#X floatatom 562 547 5 0 0 0 - - - 0;
#X obj 563 503 loadbang;
#X obj 463 650 scale 0 1 80 -20;
#X obj 451 715 line;
#X msg 451 692 0 2000;
#X obj 1028 550 unpack;
#X msg 1030 570 set \$1;
#X obj 667 540 unpack;
#X msg 667 557 set \$1;
#N canvas 257 328 825 440 soundplayer_Objekt_Schlangen 0;
#X obj 41 27 inlet;
#X obj 48 273 throw~ mono;
#X obj 39 55 sel 1 0;
#X obj 50 190 readsf~;
#X msg 40 111 1;
#X msg 92 132 0;
#X obj 99 189 bng 16 250 50 0 empty empty empty 0 -8 0 10 #fcfcfc #000000 #000000;
#X obj 51 232 *~;
#X obj 79 230 line~;
#X msg 117 229 1 10;
#X obj 93 90 t b b;
#X obj 40 89 t b b b;
#X msg 151 229 0 50;
#X obj 94 111 del 50;
#X obj 268 124 cyclone/gate 3 1;
#X msg 167 91 1;
#X obj 166 144 t a a;
#X floatatom 295 101 5 0 0 0 - - - 0;
#X obj 268 100 + 1;
#X obj 166 112 + 1;
#X msg 296 51 clear;
#X obj 341 19 inlet;
#X obj 343 65 t a a;
#X msg 342 43 0;
#X msg 216 194 open 1SiriSounds/Objekt_Schlangen.wav;
#X msg 215 244 open 1SiriSounds/Objekt_Schlangen.wav;
#X msg 216 219 open 1SiriSounds/neila_mix2.wav;
#X obj 242 159 t b b;
#X msg 173 20 10000;
#X obj 165 58 pipe 10000;
#X obj 281 159 t b b;
#X msg 217 21 2000;
#X obj 204 292 outlet;
#X connect 0 0 2 0;
#X connect 2 0 11 0;
#X connect 2 1 10 0;
#X connect 3 0 7 0;
#X connect 3 1 6 0;
#X connect 4 0 3 0;
#X connect 5 0 3 0;
#X connect 6 0 15 0;
#X connect 7 0 1 0;
#X connect 8 0 7 1;
#X connect 9 0 8 0;
#X connect 10 0 13 0;
#X connect 10 1 12 0;
#X connect 10 1 20 0;
#X connect 11 0 4 0;
#X connect 11 0 29 0;
#X connect 11 1 9 0;
#X connect 11 2 14 1;
#X connect 12 0 8 0;
#X connect 13 0 5 0;
#X connect 14 0 27 0;
#X connect 14 1 30 0;
#X connect 14 2 25 0;
#X connect 15 0 19 0;
#X connect 16 0 19 1;
#X connect 16 1 18 0;
#X connect 18 0 17 0;
#X connect 18 0 14 0;
#X connect 18 0 32 0;
#X connect 19 0 16 0;
#X connect 20 0 29 0;
#X connect 21 0 23 0;
#X connect 22 0 18 0;
#X connect 22 1 19 1;
#X connect 23 0 22 0;
#X connect 24 0 3 0;
#X connect 24 0 28 0;
#X connect 25 0 3 0;
#X connect 26 0 3 0;
#X connect 27 0 24 0;
#X connect 28 0 29 1;
#X connect 30 0 26 0;
#X connect 30 1 31 0;
#X connect 31 0 29 1;
#X restore 247 248 pd soundplayer_Objekt_Schlangen;
#X obj 141 231 r reset;
#X obj 1204 62 s reset;
#X obj 1205 41 bng 16 250 50 0 empty empty empty 0 -8 0 10 #fcfcfc #000000 #000000;
#X obj 390 226 r reset;
#X obj 616 227 r reset;
#N canvas 257 328 825 440 soundplayer_Objekt_Stahlwolle 0;
#X obj 41 27 inlet;
#X obj 48 273 throw~ mono;
#X obj 39 55 sel 1 0;
#X obj 50 190 readsf~;
#X msg 40 111 1;
#X msg 92 132 0;
#X obj 100 190 bng 16 250 50 0 empty empty empty 0 -8 0 10 #fcfcfc #000000 #000000;
#X obj 51 232 *~;
#X obj 79 230 line~;
#X msg 117 229 1 10;
#X obj 93 90 t b b;
#X obj 40 89 t b b b;
#X msg 151 229 0 50;
#X obj 94 111 del 50;
#X obj 213 152 cyclone/gate 3 1;
#X msg 166 90 1;
#X obj 166 144 t a a;
#X floatatom 240 129 5 0 0 0 - - - 0;
#X obj 213 128 + 1;
#X obj 166 110 + 1;
#X msg 296 51 clear;
#X obj 341 19 inlet;
#X obj 343 65 t a a;
#X msg 342 43 0;
#X msg 215 223 open 1SiriSounds/Objekt_Stahlwolle.wav;
#X msg 214 273 open 1SiriSounds/Objekt_Stahlwolle.wav;
#X msg 215 248 open 1SiriSounds/neila_mix3.wav;
#X obj 165 58 pipe 10000;
#X obj 214 188 t b b;
#X obj 255 188 t b b;
#X msg 195 21 10000;
#X msg 239 21 2000;
#X obj 166 366 outlet;
#X connect 0 0 2 0;
#X connect 2 0 11 0;
#X connect 2 1 10 0;
#X connect 3 0 7 0;
#X connect 3 1 6 0;
#X connect 4 0 3 0;
#X connect 5 0 3 0;
#X connect 6 0 15 0;
#X connect 7 0 1 0;
#X connect 8 0 7 1;
#X connect 9 0 8 0;
#X connect 10 0 13 0;
#X connect 10 1 12 0;
#X connect 10 1 20 0;
#X connect 11 0 4 0;
#X connect 11 0 27 0;
#X connect 11 1 9 0;
#X connect 11 2 14 1;
#X connect 12 0 8 0;
#X connect 13 0 5 0;
#X connect 14 0 28 0;
#X connect 14 1 29 0;
#X connect 14 2 25 0;
#X connect 15 0 19 0;
#X connect 16 0 19 1;
#X connect 16 1 18 0;
#X connect 18 0 17 0;
#X connect 18 0 14 0;
#X connect 18 0 32 0;
#X connect 19 0 16 0;
#X connect 20 0 27 0;
#X connect 21 0 23 0;
#X connect 22 0 18 0;
#X connect 22 1 19 1;
#X connect 23 0 22 0;
#X connect 24 0 3 0;
#X connect 25 0 3 0;
#X connect 26 0 3 0;
#X connect 28 0 24 0;
#X connect 28 1 30 0;
#X connect 29 0 26 0;
#X connect 29 1 31 0;
#X connect 30 0 27 1;
#X connect 31 0 27 1;
#X restore 463 249 pd soundplayer_Objekt_Stahlwolle;
#X obj 794 223 r reset;
#N canvas 257 328 825 440 soundplayer_Objekt-Wolle 0;
#X obj 41 27 inlet;
#X obj 48 273 throw~ mono;
#X obj 39 55 sel 1 0;
#X obj 50 190 readsf~;
#X msg 40 111 1;
#X msg 92 132 0;
#X obj 101 190 bng 16 250 50 0 empty empty empty 0 -8 0 10 #fcfcfc #000000 #000000;
#X obj 51 232 *~;
#X obj 79 230 line~;
#X msg 117 229 1 10;
#X obj 93 90 t b b;
#X obj 40 89 t b b b;
#X msg 151 229 0 50;
#X obj 94 111 del 50;
#X obj 213 152 cyclone/gate 3 1;
#X msg 166 91 1;
#X obj 166 144 t a a;
#X floatatom 240 129 5 0 0 0 - - - 0;
#X obj 213 128 + 1;
#X obj 166 111 + 1;
#X msg 296 51 clear;
#X obj 341 19 inlet;
#X obj 343 65 t a a;
#X msg 342 43 0;
#X msg 213 217 open 1SiriSounds/Objekt-Wolle.wav;
#X msg 212 267 open 1SiriSounds/Objekt-Wolle.wav;
#X msg 213 242 open 1SiriSounds/neila_mix4.wav;
#X obj 213 185 t b b;
#X obj 252 184 t b b;
#X obj 165 58 pipe 10000;
#X msg 190 26 10000;
#X msg 232 26 2000;
#X obj 159 339 outlet;
#X connect 0 0 2 0;
#X connect 2 0 11 0;
#X connect 2 1 10 0;
#X connect 3 0 7 0;
#X connect 3 1 6 0;
#X connect 4 0 3 0;
#X connect 5 0 3 0;
#X connect 6 0 15 0;
#X connect 7 0 1 0;
#X connect 8 0 7 1;
#X connect 9 0 8 0;
#X connect 10 0 13 0;
#X connect 10 1 12 0;
#X connect 10 1 20 0;
#X connect 11 0 4 0;
#X connect 11 0 29 0;
#X connect 11 1 9 0;
#X connect 11 2 14 1;
#X connect 12 0 8 0;
#X connect 13 0 5 0;
#X connect 14 0 27 0;
#X connect 14 1 28 0;
#X connect 14 2 25 0;
#X connect 15 0 19 0;
#X connect 16 0 19 1;
#X connect 16 1 18 0;
#X connect 18 0 17 0;
#X connect 18 0 14 0;
#X connect 18 0 32 0;
#X connect 19 0 16 0;
#X connect 20 0 29 0;
#X connect 21 0 23 0;
#X connect 22 0 18 0;
#X connect 22 1 19 1;
#X connect 23 0 22 0;
#X connect 24 0 3 0;
#X connect 25 0 3 0;
#X connect 26 0 3 0;
#X connect 27 0 24 0;
#X connect 27 1 30 0;
#X connect 28 0 26 0;
#X connect 28 1 31 0;
#X connect 30 0 29 1;
#X connect 31 0 29 1;
#X restore 675 243 pd soundplayer_Objekt-Wolle;
#N canvas 334 23 855 403 soundplayer_Neila 0;
#X obj 41 27 inlet;
#X obj 43 59 sel 1 0;
#X obj 54 194 readsf~;
#X msg 44 115 1;
#X obj 95 216 bng 16 250 50 0 empty empty empty 0 -8 0 10 #fcfcfc #000000 #000000;
#X obj 55 236 *~;
#X obj 83 234 line~;
#X obj 44 93 t b b b;
#X msg 170 85 1;
#X obj 170 148 t a a;
#X floatatom 265 45 5 0 0 0 - - - 0;
#X obj 238 44 + 1;
#X obj 170 105 + 1;
#X msg 218 182 open NEILA_perspective/answer1.wav;
#X msg 228 202 open NEILA_perspective/answer2.wav;
#X msg 239 224 open NEILA_perspective/answer3.wav;
#X msg 249 244 open NEILA_perspective/answer4.wav;
#X msg 105 120 0;
#X obj 106 78 t b b;
#X obj 107 99 del 100;
#X msg 133 171 0 100;
#X msg 98 140 1.5 30;
#X msg 253 265 open NEILA_perspective/answer5.wav;
#X msg 270 287 open NEILA_perspective/answer6.wav;
#X msg 276 313 open NEILA_perspective/answer8.wav;
#X obj 192 14 inlet;
#X msg 469 180 open NEILA_perspective/answer9.wav;
#X msg 479 200 open NEILA_perspective/answer10.wav;
#X msg 500 223 open NEILA_perspective/answer12.wav;
#X msg 504 244 open NEILA_perspective/answer13.wav;
#X msg 521 266 open NEILA_perspective/answer14.wav;
#X obj 193 33 - 1;
#X obj 620 364 outlet;
#X obj 58 340 outlet~;
#X obj 238 68 cyclone/gate 12 1, f 37;
#X obj 170 126 % 12;
#X obj 491 11 inlet;
#X obj 493 57 t a a;
#X msg 492 35 0;
#X obj 98 31 tgl 16 0 empty empty empty 0 -8 0 10 #fcfcfc #000000 #000000 0 1;
#X connect 0 0 1 0;
#X connect 1 0 7 0;
#X connect 1 1 18 0;
#X connect 2 0 5 0;
#X connect 2 1 4 0;
#X connect 3 0 2 0;
#X connect 5 0 33 0;
#X connect 6 0 5 1;
#X connect 7 0 3 0;
#X connect 7 0 8 0;
#X connect 7 1 21 0;
#X connect 7 2 34 1;
#X connect 8 0 12 0;
#X connect 9 0 12 1;
#X connect 9 1 11 0;
#X connect 10 0 32 0;
#X connect 11 0 10 0;
#X connect 11 0 34 0;
#X connect 12 0 35 0;
#X connect 13 0 2 0;
#X connect 14 0 2 0;
#X connect 15 0 2 0;
#X connect 16 0 2 0;
#X connect 17 0 2 0;
#X connect 18 0 19 0;
#X connect 18 1 20 0;
#X connect 19 0 17 0;
#X connect 20 0 6 0;
#X connect 21 0 6 0;
#X connect 22 0 2 0;
#X connect 23 0 2 0;
#X connect 24 0 2 0;
#X connect 25 0 31 0;
#X connect 26 0 2 0;
#X connect 27 0 2 0;
#X connect 28 0 2 0;
#X connect 29 0 2 0;
#X connect 30 0 2 0;
#X connect 31 0 9 0;
#X connect 34 0 13 0;
#X connect 34 1 14 0;
#X connect 34 2 15 0;
#X connect 34 3 16 0;
#X connect 34 4 22 0;
#X connect 34 5 23 0;
#X connect 34 6 24 0;
#X connect 34 7 26 0;
#X connect 34 8 27 0;
#X connect 34 9 28 0;
#X connect 34 10 29 0;
#X connect 34 11 30 0;
#X connect 35 0 9 0;
#X connect 36 0 38 0;
#X connect 37 0 11 0;
#X connect 37 1 12 1;
#X connect 38 0 37 0;
#X connect 39 0 1 0;
#X restore 33 665 pd soundplayer_Neila;
#X obj 162 664 r reset;
#X obj 663 726 throw~ mono;
#X obj 666 704 *~;
#X obj 740 725 hsl 136 16 0 1 0 0 empty empty empty -2 -8 0 10 #fcfcfc #000000 #000000 0 1;
#X obj 693 705 line~;
#X msg 734 684 \$1 100;
#X floatatom 785 685 5 0 0 0 - - - 0;
#X obj 821 685 unpack;
#X msg 823 705 set \$1;
#X obj 647 683 drone_intro~;
#X obj 1145 40 bng 16 250 50 0 empty empty empty 0 -8 0 10 #fcfcfc #000000 #000000;
#X msg 881 160 1;
#X obj 1146 92 bng 16 250 50 0 empty empty empty 0 -8 0 10 #fcfcfc #000000 #000000;
#X msg 562 525 363;
#X obj 462 555 spigot;
#X msg 478 528 1;
#X msg 505 528 0;
#X obj 1147 139 bng 16 250 50 0 empty empty empty 0 -8 0 10 #fcfcfc #000000 #000000;
#X obj 1148 188 bng 16 250 50 0 empty empty empty 0 -8 0 10 #fcfcfc #000000 #000000;
#X obj 1146 63 s scene1;
#X obj 1147 115 s scene2;
#X obj 1148 162 s scene3;
#X obj 1149 211 s scene4;
#X obj 810 642 r scene2;
#X obj 724 642 r scene1;
#X obj 633 499 r scene3;
#X obj 770 496 r scene2;
#X obj 795 539 r scene4;
#X obj 636 518 r scene1;
#X obj 453 669 r scene4;
#X obj 509 669 r scene3;
#X obj 931 504 r scene4;
#X obj 1053 684 bng 16 250 50 0 empty empty empty 0 -8 0 10 #fcfcfc #000000 #000000;
#X obj 1054 707 s end;
#X obj 1028 509 r end;
#X obj 873 569 *~;
#X obj 788 618 r scene3;
#X obj 843 618 r scene4;
#X msg 723 660 0.2 5000;
#X obj 866 75 r scene1;
#X obj 910 133 r scene2;
#X msg 910 160 0;
#X msg 695 518 0.15 10000;
#X obj 1155 458 s Ping;
#X obj 873 498 r Ping;
#X msg 499 692 0.8 2000;
#X obj 249 710 line;
#X msg 283 710 1 2000;
#X obj 23 417 cyclone/gate 2;
#X obj 235 417 cyclone/gate 2;
#X obj 444 414 cyclone/gate 2;
#X obj 654 414 cyclone/gate 2;
#X obj 880 414 cyclone/gate 2;
#X obj 674 204 cyclone/gate 2;
#X obj 467 206 cyclone/gate 2;
#X obj 249 208 cyclone/gate 2;
#X obj 26 209 cyclone/gate 2;
#X obj 1049 399 hradio 16 1 0 2 empty empty empty 0 -8 0 10 #fcfcfc #000000 #000000 0;
#X obj 1081 362 r scene2;
#X msg 1074 378 1;
#X msg 1048 379 0;
#X text 1125 426 play;
#X text 1199 427 stop;
#X msg 694 497 0.03 20000;
#X msg 930 525 0.2 20000;
#X msg 1029 529 0 20000;
#X obj 774 516 delay 2000;
#N canvas 466 362 720 396 soundplayer_garten 0;
#X obj 41 27 inlet;
#X obj 43 59 sel 1 0;
#X obj 54 194 readsf~;
#X msg 44 115 1;
#X msg 96 136 0;
#X obj 56 266 throw~ mono;
#X obj 95 216 bng 16 250 50 0 empty empty empty 0 -8 0 10 #fcfcfc #000000 #000000;
#X obj 55 236 *~;
#X obj 83 234 line~;
#X msg 121 233 1 10;
#X obj 97 94 t b b;
#X obj 44 93 t b b b;
#X msg 155 233 0 50;
#X obj 98 115 del 50;
#X msg 170 85 1;
#X obj 170 148 t a a;
#X floatatom 244 161 5 0 0 0 - - - 0;
#X obj 217 160 + 1;
#X obj 170 105 + 1;
#X msg 176 59 clear;
#X msg 230 226 open NEILA_perspective/Kleingartenbesitzer1.wav;
#X msg 247 249 open NEILA_perspective/Kleingartenbesitzer2.wav;
#X obj 341 19 inlet;
#X obj 343 65 t a a;
#X msg 342 43 0;
#X obj 215 305 outlet;
#X msg 209 86 1;
#X obj 209 106 + 1;
#X obj 209 127 t a a;
#X obj 107 61 pipe 4000;
#X msg 218 205 open NEILA_perspective/Supermarkt.wav;
#X obj 217 184 cyclone/gate 3 1;
#X obj 170 126 % 3;
#X connect 0 0 1 0;
#X connect 1 0 11 0;
#X connect 1 1 10 0;
#X connect 2 0 7 0;
#X connect 2 1 6 0;
#X connect 3 0 2 0;
#X connect 4 0 2 0;
#X connect 7 0 5 0;
#X connect 8 0 7 1;
#X connect 9 0 8 0;
#X connect 10 0 13 0;
#X connect 10 1 12 0;
#X connect 10 1 19 0;
#X connect 11 0 3 0;
#X connect 11 0 29 0;
#X connect 11 1 9 0;
#X connect 11 2 31 1;
#X connect 12 0 8 0;
#X connect 13 0 4 0;
#X connect 14 0 18 0;
#X connect 15 0 18 1;
#X connect 15 1 17 0;
#X connect 17 0 16 0;
#X connect 17 0 31 0;
#X connect 18 0 32 0;
#X connect 19 0 29 0;
#X connect 20 0 2 0;
#X connect 21 0 2 0;
#X connect 22 0 24 0;
#X connect 23 0 17 0;
#X connect 23 1 18 1;
#X connect 23 1 27 1;
#X connect 24 0 23 0;
#X connect 26 0 27 0;
#X connect 27 0 28 0;
#X connect 28 0 25 0;
#X connect 28 1 27 1;
#X connect 29 0 14 0;
#X connect 29 0 26 0;
#X connect 30 0 2 0;
#X connect 31 0 30 0;
#X connect 31 1 20 0;
#X connect 31 2 21 0;
#X connect 32 0 15 0;
#X restore 880 435 pd soundplayer_garten;
#X floatatom 23 459 5 0 0 0 - - - 0;
#X floatatom 234 459 5 0 0 0 - - - 0;
#X floatatom 443 457 5 0 0 0 - - - 0;
#X floatatom 655 454 5 0 0 0 - - - 0;
#X floatatom 880 455 5 0 0 0 - - - 0;
#X obj 163 417 r reset;
#X obj 376 418 r reset;
#X obj 142 419 bng 16 250 50 0 empty empty empty 0 -8 0 10 #fcfcfc #000000 #000000;
#X obj 358 418 bng 16 250 50 0 empty empty empty 0 -8 0 10 #fcfcfc #000000 #000000;
#X obj 588 416 r reset;
#X obj 570 416 bng 16 250 50 0 empty empty empty 0 -8 0 10 #fcfcfc #000000 #000000;
#X obj 794 414 r reset;
#X obj 776 414 bng 16 250 50 0 empty empty empty 0 -8 0 10 #fcfcfc #000000 #000000;
#X obj 998 414 r reset;
#X obj 980 414 bng 16 250 50 0 empty empty empty 0 -8 0 10 #fcfcfc #000000 #000000;
#X msg 784 661 0 15000;
#X msg 737 544 0 15000;
#X obj 769 221 bng 16 250 50 0 empty empty empty 0 -8 0 10 #fcfcfc #000000 #000000;
#X obj 592 226 bng 16 250 50 0 empty empty empty 0 -8 0 10 #fcfcfc #000000 #000000;
#X obj 369 226 bng 16 250 50 0 empty empty empty 0 -8 0 10 #fcfcfc #000000 #000000;
#X obj 118 231 bng 16 250 50 0 empty empty empty 0 -8 0 10 #fcfcfc #000000 #000000;
#N canvas 257 328 560 341 NeilaMix 0;
#X obj 41 27 inlet;
#X obj 43 59 sel 1 0;
#X obj 54 194 readsf~;
#X msg 44 115 1;
#X msg 96 136 0;
#X obj 56 266 throw~ mono;
#X obj 95 216 bng 16 250 50 0 empty empty empty 0 -8 0 10 #fcfcfc #000000 #000000;
#X obj 55 236 *~;
#X obj 83 234 line~;
#X msg 121 233 1 10;
#X obj 97 94 t b b;
#X obj 44 93 t b b b;
#X msg 155 233 0 50;
#X obj 98 115 del 50;
#X msg 170 85 1;
#X obj 170 148 t a a;
#X floatatom 244 151 5 0 0 0 - - - 0;
#X obj 217 150 + 1;
#X obj 170 105 + 1;
#X obj 170 126 % 3;
#X msg 190 59 clear;
#X obj 341 19 inlet;
#X obj 343 65 t a a;
#X msg 342 43 0;
#X obj 215 305 outlet;
#X msg 209 86 1;
#X obj 209 106 + 1;
#X obj 208 125 t a a;
#X obj 217 174 cyclone/gate 4 1;
#X msg 287 195 open 1SiriSounds/neila_mix1.wav;
#X msg 247 222 open 1SiriSounds/neila_mix2.wav;
#X msg 248 249 open 1SiriSounds/neila_mix3.wav;
#X msg 239 278 open 1SiriSounds/neila_mix4.wav;
#X obj 121 57 pipe 2000;
#X obj 443 24 inlet;
#X obj 444 43 - 1;
#X connect 0 0 1 0;
#X connect 1 0 11 0;
#X connect 1 1 10 0;
#X connect 2 0 7 0;
#X connect 2 1 6 0;
#X connect 3 0 2 0;
#X connect 4 0 2 0;
#X connect 7 0 5 0;
#X connect 8 0 7 1;
#X connect 9 0 8 0;
#X connect 10 0 13 0;
#X connect 10 1 12 0;
#X connect 10 1 20 0;
#X connect 11 0 3 0;
#X connect 11 0 33 0;
#X connect 11 1 9 0;
#X connect 11 2 28 1;
#X connect 12 0 8 0;
#X connect 13 0 4 0;
#X connect 14 0 18 0;
#X connect 15 0 18 1;
#X connect 15 1 17 0;
#X connect 17 0 16 0;
#X connect 17 0 28 0;
#X connect 18 0 19 0;
#X connect 19 0 15 0;
#X connect 20 0 33 0;
#X connect 21 0 23 0;
#X connect 22 0 17 0;
#X connect 22 1 18 1;
#X connect 22 1 26 1;
#X connect 23 0 22 0;
#X connect 25 0 26 0;
#X connect 26 0 27 0;
#X connect 27 0 24 0;
#X connect 27 1 26 1;
#X connect 28 0 29 0;
#X connect 28 1 30 0;
#X connect 28 2 31 0;
#X connect 28 3 32 0;
#X connect 29 0 2 0;
#X connect 30 0 2 0;
#X connect 31 0 2 0;
#X connect 32 0 2 0;
#X connect 33 0 14 0;
#X connect 33 0 25 0;
#X connect 34 0 35 0;
#X connect 35 0 15 0;
#X restore 849 220 pd NeilaMix;
#X floatatom 943 220 5 0 14 0 - - - 0;
#X obj 925 241 int;
#X obj 924 220 bng 16 250 50 0 empty empty empty 0 -8 0 10 #fcfcfc #000000 #000000;
#X obj 879 202 r reset;
#X floatatom 853 242 5 0 0 0 - - - 0;
#X floatatom 82 232 5 0 0 0 - - - 0;
#X floatatom 483 231 5 0 0 0 - - - 0;
#X floatatom 269 228 5 0 0 0 - - - 0;
#X floatatom 702 226 5 0 0 0 - - - 0;
#X obj 1122 541 tgl 16 0 empty empty empty 0 -8 0 10 #fcfcfc #000000 #000000 0 1;
#X obj 1122 590 tgl 16 0 empty empty empty 0 -8 0 10 #fcfcfc #000000 #000000 0 1;
#X obj 1123 642 tgl 16 0 empty empty empty 0 -8 0 10 #fcfcfc #000000 #000000 0 1;
#X obj 1128 696 tgl 16 0 empty empty empty 0 -8 0 10 #fcfcfc #000000 #000000 0 1;
#X connect 1 0 0 0;
#X connect 2 0 6 0;
#X connect 5 0 3 0;
#X connect 5 0 3 1;
#X connect 6 0 1 0;
#X connect 8 0 12 0;
#X connect 9 0 14 0;
#X connect 10 0 17 0;
#X connect 11 0 18 0;
#X connect 12 0 175 1;
#X connect 12 1 175 0;
#X connect 13 0 197 0;
#X connect 14 0 176 1;
#X connect 14 1 176 0;
#X connect 15 0 196 0;
#X connect 16 0 177 1;
#X connect 16 1 177 0;
#X connect 17 0 178 1;
#X connect 17 1 178 0;
#X connect 18 0 179 1;
#X connect 18 1 179 0;
#X connect 19 0 195 0;
#X connect 20 0 198 0;
#X connect 21 0 24 0;
#X connect 22 0 23 0;
#X connect 23 0 7 0;
#X connect 23 0 110 0;
#X connect 24 0 126 0;
#X connect 25 0 7 1;
#X connect 26 0 3 1;
#X connect 27 0 3 0;
#X connect 29 0 31 0;
#X connect 30 0 107 1;
#X connect 31 0 30 0;
#X connect 32 0 33 1;
#X connect 33 0 126 1;
#X connect 34 0 33 0;
#X connect 37 0 38 1;
#X connect 38 0 36 0;
#X connect 40 0 39 0;
#X connect 40 0 170 0;
#X connect 41 0 39 1;
#X connect 42 0 46 0;
#X connect 43 0 48 0;
#X connect 44 0 49 0;
#X connect 45 0 50 0;
#X connect 46 0 183 1;
#X connect 47 0 222 0;
#X connect 48 0 182 1;
#X connect 49 0 181 1;
#X connect 50 0 180 1;
#X connect 51 0 53 0;
#X connect 52 0 53 1;
#X connect 53 0 138 0;
#X connect 56 0 60 0;
#X connect 56 0 168 0;
#X connect 57 0 60 1;
#X connect 61 0 65 0;
#X connect 61 0 168 0;
#X connect 62 0 65 1;
#X connect 65 0 138 0;
#X connect 66 0 74 0;
#X connect 66 0 168 0;
#X connect 67 0 74 1;
#X connect 70 0 75 0;
#X connect 70 0 168 0;
#X connect 71 0 75 1;
#X connect 74 0 138 0;
#X connect 75 0 138 0;
#X connect 76 0 16 0;
#X connect 78 0 77 0;
#X connect 79 0 77 1;
#X connect 80 0 77 2;
#X connect 81 0 77 3;
#X connect 82 0 77 4;
#X connect 83 0 180 0;
#X connect 83 0 181 0;
#X connect 83 0 182 0;
#X connect 83 0 183 0;
#X connect 85 0 162 0;
#X connect 87 0 89 0;
#X connect 88 0 162 1;
#X connect 89 0 88 0;
#X connect 90 0 85 0;
#X connect 91 0 95 0;
#X connect 91 0 226 0;
#X connect 92 0 95 1;
#X connect 96 0 98 0;
#X connect 96 0 227 0;
#X connect 97 0 98 1;
#X connect 99 0 101 0;
#X connect 99 0 228 0;
#X connect 100 0 101 1;
#X connect 102 0 104 0;
#X connect 102 0 229 0;
#X connect 103 0 104 1;
#X connect 105 0 106 0;
#X connect 106 0 107 0;
#X connect 107 0 28 0;
#X connect 108 0 106 1;
#X connect 109 0 140 0;
#X connect 109 0 105 0;
#X connect 110 0 141 0;
#X connect 111 0 25 0;
#X connect 112 0 111 0;
#X connect 112 0 173 0;
#X connect 113 0 114 0;
#X connect 114 0 87 0;
#X connect 115 0 116 0;
#X connect 116 0 29 0;
#X connect 117 0 224 0;
#X connect 118 0 47 1;
#X connect 120 0 119 0;
#X connect 121 0 117 1;
#X connect 122 0 123 1;
#X connect 123 0 223 0;
#X connect 124 0 125 1;
#X connect 125 0 225 0;
#X connect 126 0 38 0;
#X connect 126 1 35 0;
#X connect 127 0 126 2;
#X connect 129 0 128 0;
#X connect 130 0 132 0;
#X connect 130 0 133 0;
#X connect 131 0 129 1;
#X connect 132 0 131 0;
#X connect 134 0 135 0;
#X connect 135 0 130 0;
#X connect 136 0 129 0;
#X connect 136 1 85 1;
#X connect 136 2 85 2;
#X connect 137 0 146 0;
#X connect 137 0 120 0;
#X connect 138 0 83 0;
#X connect 139 0 147 0;
#X connect 140 0 108 0;
#X connect 141 0 108 0;
#X connect 142 0 141 1;
#X connect 143 0 141 1;
#X connect 144 0 148 0;
#X connect 145 0 149 0;
#X connect 150 0 210 0;
#X connect 151 0 165 0;
#X connect 152 0 142 0;
#X connect 152 0 169 0;
#X connect 153 0 143 0;
#X connect 153 0 193 0;
#X connect 154 0 211 0;
#X connect 155 0 211 0;
#X connect 155 0 143 0;
#X connect 156 0 112 0;
#X connect 157 0 172 0;
#X connect 157 0 174 0;
#X connect 158 0 191 0;
#X connect 158 0 90 0;
#X connect 159 0 160 0;
#X connect 161 0 192 0;
#X connect 162 0 86 0;
#X connect 163 0 210 0;
#X connect 164 0 210 0;
#X connect 165 0 131 0;
#X connect 165 0 134 0;
#X connect 167 0 168 0;
#X connect 168 0 83 0;
#X connect 169 0 115 0;
#X connect 169 0 30 0;
#X connect 171 0 90 0;
#X connect 172 0 111 0;
#X connect 173 0 37 0;
#X connect 174 0 173 0;
#X connect 175 0 19 0;
#X connect 175 1 84 0;
#X connect 176 0 15 0;
#X connect 176 1 84 0;
#X connect 177 0 13 0;
#X connect 177 1 84 0;
#X connect 178 0 20 0;
#X connect 178 1 84 0;
#X connect 179 0 194 0;
#X connect 179 1 84 0;
#X connect 180 0 125 0;
#X connect 180 1 216 0;
#X connect 181 0 123 0;
#X connect 181 1 216 0;
#X connect 182 0 117 0;
#X connect 182 1 216 0;
#X connect 183 0 47 0;
#X connect 183 1 216 0;
#X connect 184 0 179 0;
#X connect 184 0 178 0;
#X connect 184 0 177 0;
#X connect 184 0 176 0;
#X connect 184 0 175 0;
#X connect 185 0 186 0;
#X connect 186 0 184 0;
#X connect 187 0 184 0;
#X connect 190 0 115 0;
#X connect 190 0 30 0;
#X connect 191 0 88 0;
#X connect 191 0 113 0;
#X connect 192 0 88 0;
#X connect 192 0 113 0;
#X connect 193 0 190 0;
#X connect 194 0 199 0;
#X connect 200 0 19 1;
#X connect 201 0 15 1;
#X connect 202 0 19 1;
#X connect 203 0 15 1;
#X connect 204 0 13 1;
#X connect 205 0 13 1;
#X connect 206 0 20 1;
#X connect 207 0 20 1;
#X connect 208 0 194 1;
#X connect 209 0 194 1;
#X connect 210 0 131 0;
#X connect 210 0 134 0;
#X connect 211 0 30 0;
#X connect 211 0 115 0;
#X connect 212 0 125 1;
#X connect 213 0 123 1;
#X connect 214 0 117 1;
#X connect 215 0 47 1;
#X connect 216 0 221 0;
#X connect 217 0 218 1;
#X connect 218 0 216 2;
#X connect 219 0 218 0;
#X connect 220 0 216 1;
