#N canvas 173 212 450 300 12;
#X obj 108 127 hsl 162 19 0 4095 0 0 empty empty empty -2 -10 0 12 #fcfcfc #000000 #000000 0 1;
#X obj 169 32 inlet;
#X obj 101 276 outlet;
#X obj 108 155 hsl 162 19 0 4095 0 0 empty empty empty -2 -10 0 12 #ffffff #ff31a4 #000000 0 1;
#X msg 340 129 2040;
#X obj 339 103 loadbang;
#X obj 107 183 tgl 19 0 empty empty empty 0 -10 0 12 #fcfcfc #000000 #000000 0 1;
#X obj 340 195 change;
#X obj 339 173 < 2040;
#X obj 255 184 tgl 19 0 empty empty empty 0 -10 0 12 #fcfcfc #000000 #000000 0 1;
#X obj 356 277 outlet;
#X obj 356 243 + 1;
#X text 211 186 shift;
#X connect 0 0 8 0;
#X connect 1 0 0 0;
#X connect 3 0 8 1;
#X connect 4 0 3 0;
#X connect 5 0 4 0;
#X connect 7 0 2 0;
#X connect 7 0 6 0;
#X connect 8 0 7 0;
#X connect 9 0 11 0;
#X connect 11 0 10 0;
#X coords 0 -1 1 1 180 110 1 100 100;
