#N canvas 0 23 450 300 12;
#X obj 87 291 outlet~;
#X obj 37 25 inlet;
#X obj 37 115 mtof;
#N canvas 0 23 450 300 stringvoice 0;
#X obj 60 160 phasor~;
#X obj 188 152 *~ 0.4;
#X obj 188 177 +~ 0.5;
#X obj 75 214 expr~ $v1> $v2;
#X obj 188 127 osc~ 2.1;
#X obj 58 136 +~;
#X obj 36 98 sig~;
#X obj 105 79 osc~ 5;
#X obj 106 105 *~ 3;
#X floatatom 34 75 5 0 0 0 - - -;
#X obj 46 43 inlet;
#X obj 83 252 outlet~;
#X connect 0 0 3 0;
#X connect 1 0 2 0;
#X connect 2 0 3 1;
#X connect 3 0 11 0;
#X connect 4 0 1 0;
#X connect 5 0 0 0;
#X connect 6 0 5 0;
#X connect 7 0 8 0;
#X connect 8 0 5 1;
#X connect 9 0 6 0;
#X connect 10 0 9 0;
#X restore 37 142 pd stringvoice;
#X obj 37 70 unpack 3 1;
#X obj 87 257 *~;
#X obj 167 105 sel 0;
#X msg 167 136 0;
#X obj 206 137 / 127;
#X obj 167 185 line~;
#X msg 167 162 \$1 400;
#X obj 166 217 *~;
#X connect 1 0 4 0;
#X connect 2 0 3 0;
#X connect 3 0 5 0;
#X connect 4 0 2 0;
#X connect 4 1 6 0;
#X connect 5 0 0 0;
#X connect 6 0 7 0;
#X connect 6 1 8 0;
#X connect 7 0 10 0;
#X connect 8 0 10 0;
#X connect 9 0 11 0;
#X connect 9 0 11 1;
#X connect 10 0 9 0;
#X connect 11 0 5 1;
