#N canvas 0 23 1280 755 10;
#X obj 149 552 loadbang;
#X msg 127 525 0.1;
#X obj 236 705 echoB~;
#X obj 456 757 flangerB~;
#X obj 673 758 reverbB~;
#N canvas 0 22 450 278 (subpatch) 0;
#X array vocalAudioFile 4.30899e+06 float 2;
#X coords 0 1 4.30899e+06 -1 200 140 1 0 0;
#X restore 16 51 graph;
#X obj 24 648 +~;
#X obj 1189 771 audioOnOff;
#X obj 1189 747 tgl 15 0 empty empty empty 17 7 0 10 #fcfcfc #000000 #000000 0 1;
#X obj 1189 722 loadbang;
#X obj 17 770 filterB~;
#X obj 19 625 playAudioFile~;
#X text 24 12 PLAYING AUDIO FILE AND CONTROL AUDIO EFFECTS BASED ON ANALOG SENSORS, f 68;
#X obj 16 549 setSensorThreshold~;
#X msg 101 574 vocalAudioFile;
#X obj 377 534 loadbang;
#X msg 352 498 0.1;
#N canvas 0 22 450 278 (subpatch) 0;
#X array array6 1.45203e+06 float 2;
#X coords 0 1 1.45203e+06 -1 200 140 1 0 0;
#X restore 225 52 graph;
#X obj 242 521 setSensorThreshold~;
#X obj 236 604 playAudioFile~;
#X msg 295 561 array6;
#X obj 602 496 loadbang;
#X msg 566 496 0.1;
#N canvas 0 22 450 278 (subpatch) 0;
#X array array7 1.14227e+06 float 2;
#X coords 0 1 1.14227e+06 -1 200 140 1 0 0;
#X restore 445 53 graph;
#X obj 457 519 setSensorThreshold~;
#X obj 459 599 playAudioFile~;
#X obj 816 499 loadbang;
#X msg 784 497 0.1;
#N canvas 0 22 450 278 (subpatch) 0;
#X array array9 756855 float 2;
#X coords 0 1 756855 -1 200 140 1 0 0;
#X restore 653 53 graph;
#X obj 673 532 setSensorThreshold~;
#X obj 673 604 playAudioFile~;
#X msg 516 547 array7;
#X msg 730 553 array9;
#X obj 23 467 hsl 136 16 0 1 0 0 empty empty empty -2 -8 0 10 #fcfcfc #000000 #000000 0 1;
#X obj 21 487 sig~;
#X obj 246 465 hsl 136 16 0 1 0 0 empty empty empty -2 -8 0 10 #fcfcfc #000000 #000000 0 1;
#X obj 242 487 sig~;
#X obj 460 469 hsl 136 16 0 1 0 0 empty empty empty -2 -8 0 10 #fcfcfc #000000 #000000 0 1;
#X obj 457 492 sig~;
#X obj 676 469 hsl 136 16 0 1 0 0 empty empty empty -2 -8 0 10 #fcfcfc #000000 #000000 0 1;
#X obj 673 493 sig~;
#X obj 272 638 hsl 136 16 0 1 0 0 empty empty empty -2 -8 0 10 #fcfcfc #000000 #000000 0 1;
#X obj 269 659 sig~;
#X obj 508 685 hsl 136 16 0 1 0 0 empty empty empty -2 -8 0 10 #fcfcfc #000000 #000000 0 1;
#X obj 505 706 sig~;
#X obj 731 711 hsl 136 16 0 1 0 0 empty empty empty -2 -8 0 10 #fcfcfc #000000 #000000 0 1;
#X obj 728 732 sig~;
#X obj 86 702 hsl 136 16 0 1 0 0 empty empty empty -2 -8 0 10 #fcfcfc #000000 #000000 0 1;
#X obj 82 723 sig~;
#X obj 885 757 reverbB~;
#X msg 996 496 0.1;
#N canvas 0 22 450 278 (subpatch) 0;
#X array array10 692899 float 2;
#X coords 0 1 692899 -1 200 140 1 0 0;
#X restore 874 52 graph;
#X obj 885 531 setSensorThreshold~;
#X obj 885 603 playAudioFile~;
#X obj 888 468 hsl 136 16 0 1 0 0 empty empty empty -2 -8 0 10 #fcfcfc #000000 #000000 0 1;
#X obj 885 492 sig~;
#X obj 931 689 hsl 136 16 0 1 0 0 empty empty empty -2 -8 0 10 #fcfcfc #000000 #000000 0 1;
#X obj 928 710 sig~;
#X obj 1098 757 reverbB~;
#X msg 1209 496 0.1;
#N canvas 0 22 450 278 (subpatch) 0;
#X array array11 809719 float 2;
#X coords 0 1 809719 -1 200 140 1 0 0;
#X restore 1087 52 graph;
#X obj 1098 531 setSensorThreshold~;
#X obj 1098 603 playAudioFile~;
#X obj 1101 468 hsl 136 16 0 1 0 0 empty empty empty -2 -8 0 10 #fcfcfc #000000 #000000 0 1;
#X obj 1098 492 sig~;
#X obj 1144 689 hsl 136 16 0 1 0 0 empty empty empty -2 -8 0 10 #fcfcfc #000000 #000000 0 1;
#X obj 1141 710 sig~;
#X msg 942 552 array10;
#X msg 1155 552 array11;
#X obj 1021 523 loadbang;
#X obj 1230 524 loadbang;
#X obj 706 840 dac~;
#X msg 1174 574 a_SoundParkKirche.wav, f 23;
#X msg 753 579 a_SoundSchuleTennis.wav;
#X msg 966 567 a_SoundSupermarkt.wav;
#X msg 317 581 a_Verkäuferin.wav;
#X msg 117 594 a_Lehrerin.wav;
#X msg 540 573 a_Vertraute.wav;
#X obj 1615 771 audioOnOff;
#X obj 1615 747 tgl 15 0 empty empty empty 17 7 0 10 #fcfcfc #000000 #000000 0 1;
#X obj 1615 722 loadbang;
#X obj 1311 757 reverbB~;
#X msg 1422 496 0.1;
#N canvas 0 22 450 278 (subpatch) 0;
#X array array12 704512 float 2;
#X coords 0 1 704512 -1 200 140 1 0 0;
#X restore 1300 52 graph;
#X obj 1311 531 setSensorThreshold~;
#X obj 1311 603 playAudioFile~;
#X obj 1314 468 hsl 136 16 0 1 0 0 empty empty empty -2 -8 0 10 #fcfcfc #000000 #000000 0 1;
#X obj 1311 492 sig~;
#X obj 1357 689 hsl 136 16 0 1 0 0 empty empty empty -2 -8 0 10 #fcfcfc #000000 #000000 0 1;
#X obj 1354 710 sig~;
#X obj 1524 757 reverbB~;
#X msg 1635 496 0.1;
#N canvas 0 22 450 278 (subpatch) 0;
#X array array13 806693 float 2;
#X coords 0 1 806693 -1 200 140 1 0 0;
#X restore 1513 52 graph;
#X obj 1524 531 setSensorThreshold~;
#X obj 1524 603 playAudioFile~;
#X obj 1527 468 hsl 136 16 0 1 0 0 empty empty empty -2 -8 0 10 #fcfcfc #000000 #000000 0 1;
#X obj 1524 492 sig~;
#X obj 1570 689 hsl 136 16 0 1 0 0 empty empty empty -2 -8 0 10 #fcfcfc #000000 #000000 0 1;
#X obj 1567 710 sig~;
#X obj 1447 523 loadbang;
#X obj 1656 524 loadbang;
#X obj 1317 362 hsl 162 19 0 1023 0 0 empty empty empty -2 -10 0 12 #fcfcfc #000000 #000000 0 1;
#X obj 1317 385 hsl 162 19 0 1023 0 0 empty empty empty -2 -10 0 12 #fcfcfc #000000 #000000 0 1;
#X obj 1317 408 hsl 162 19 0 1023 0 0 empty empty empty -2 -10 0 12 #fcfcfc #000000 #000000 0 1;
#X obj 1314 435 scale 0 1023 1 0;
#X obj 1523 360 hsl 162 19 0 1023 0 0 empty empty empty -2 -10 0 12 #fcfcfc #000000 #000000 0 1;
#X obj 1523 383 hsl 162 19 0 1023 0 0 empty empty empty -2 -10 0 12 #fcfcfc #000000 #000000 0 1;
#X obj 1523 406 hsl 162 19 0 1023 0 0 empty empty empty -2 -10 0 12 #fcfcfc #000000 #000000 0 1;
#X obj 1520 433 scale 0 1023 1 0;
#X text 1364 333 new;
#X text 1576 334 new;
#X msg 1605 567 a_Cafe.wav;
#X msg 1392 567 a_FriendsTalking.wav;
#X msg 1368 552 array12;
#X msg 1581 552 array13;
#X obj 25 227 rcp.client;
#X obj 26 248 route list;
#X obj 25 267 route update;
#X msg 100 226 close;
#X msg 25 203 open ws://192.168.0.102:10000;
#X obj 23 287 route sensor1 sensor2 sensor3;
#X obj 785 237 rcp.client;
#X obj 786 258 route list;
#X obj 785 277 route update;
#X msg 860 236 close;
#X obj 783 297 route sensor1;
#X msg 785 213 open ws://192.168.0.100:10000, f 48;
#X obj 20 350 range_setter;
#X obj 243 350 range_setter;
#X obj 458 349 range_setter;
#X obj 671 349 range_setter;
#X obj 883 347 range_setter;
#X obj 1098 346 range_setter;
#X obj 698 650 osc~;
#X floatatom 837 648 5 0 0 0 - - - 0;
#X obj 801 557 clip 0 1;
#X obj 780 615 * 1000;
#X obj 726 662 osc~;
#X obj 739 644 - 10;
#X obj 776 668 osc~;
#X obj 789 650 * 0.56;
#X obj 641 647 *~ 1;
#X obj 670 683 *~ 0.5;
#X obj 723 678 *~ 0.3;
#X obj 773 684 *~ 0.2;
#X connect 0 0 1 0;
#X connect 0 0 14 0;
#X connect 0 0 76 0;
#X connect 1 0 13 1;
#X connect 2 0 71 0;
#X connect 2 0 71 1;
#X connect 3 0 71 0;
#X connect 3 0 71 1;
#X connect 4 0 71 0;
#X connect 4 0 71 1;
#X connect 6 0 10 0;
#X connect 8 0 7 0;
#X connect 9 0 8 0;
#X connect 10 0 71 0;
#X connect 10 0 71 1;
#X connect 11 0 6 0;
#X connect 13 0 11 0;
#X connect 13 1 11 1;
#X connect 14 0 11 2;
#X connect 15 0 16 0;
#X connect 15 0 20 0;
#X connect 15 0 75 0;
#X connect 16 0 18 1;
#X connect 18 0 19 0;
#X connect 18 1 19 1;
#X connect 19 0 2 0;
#X connect 20 0 19 2;
#X connect 21 0 22 0;
#X connect 21 0 31 0;
#X connect 21 0 77 0;
#X connect 22 0 24 1;
#X connect 24 0 25 0;
#X connect 24 1 25 1;
#X connect 25 0 3 0;
#X connect 26 0 27 0;
#X connect 26 0 32 0;
#X connect 26 0 73 0;
#X connect 27 0 29 1;
#X connect 29 0 30 0;
#X connect 29 1 30 1;
#X connect 30 0 141 0;
#X connect 31 0 25 2;
#X connect 32 0 30 2;
#X connect 33 0 34 0;
#X connect 34 0 13 0;
#X connect 35 0 36 0;
#X connect 36 0 18 0;
#X connect 37 0 38 0;
#X connect 38 0 24 0;
#X connect 39 0 40 0;
#X connect 39 0 135 0;
#X connect 40 0 29 0;
#X connect 41 0 42 0;
#X connect 42 0 2 1;
#X connect 43 0 44 0;
#X connect 44 0 3 1;
#X connect 45 0 46 0;
#X connect 46 0 4 1;
#X connect 47 0 48 0;
#X connect 48 0 10 1;
#X connect 49 0 71 0;
#X connect 49 0 71 1;
#X connect 50 0 52 1;
#X connect 52 0 53 0;
#X connect 52 1 53 1;
#X connect 53 0 49 0;
#X connect 54 0 55 0;
#X connect 55 0 52 0;
#X connect 56 0 57 0;
#X connect 57 0 49 1;
#X connect 58 0 71 0;
#X connect 58 0 71 1;
#X connect 59 0 61 1;
#X connect 61 0 62 0;
#X connect 61 1 62 1;
#X connect 62 0 58 0;
#X connect 63 0 64 0;
#X connect 64 0 61 0;
#X connect 65 0 66 0;
#X connect 66 0 58 1;
#X connect 67 0 53 2;
#X connect 68 0 62 2;
#X connect 69 0 50 0;
#X connect 69 0 67 0;
#X connect 69 0 74 0;
#X connect 70 0 59 0;
#X connect 70 0 68 0;
#X connect 70 0 72 0;
#X connect 72 0 62 3;
#X connect 73 0 30 3;
#X connect 74 0 53 3;
#X connect 75 0 19 3;
#X connect 76 0 11 3;
#X connect 77 0 25 3;
#X connect 79 0 78 0;
#X connect 80 0 79 0;
#X connect 81 0 71 0;
#X connect 81 0 71 1;
#X connect 82 0 84 1;
#X connect 84 0 85 0;
#X connect 84 1 85 1;
#X connect 85 0 81 0;
#X connect 86 0 87 0;
#X connect 87 0 84 0;
#X connect 88 0 89 0;
#X connect 89 0 81 1;
#X connect 90 0 71 0;
#X connect 90 0 71 1;
#X connect 91 0 93 1;
#X connect 93 0 94 0;
#X connect 93 1 94 1;
#X connect 94 0 90 0;
#X connect 95 0 96 0;
#X connect 96 0 93 0;
#X connect 97 0 98 0;
#X connect 98 0 90 1;
#X connect 99 0 82 0;
#X connect 99 0 113 0;
#X connect 99 0 112 0;
#X connect 100 0 91 0;
#X connect 100 0 114 0;
#X connect 100 0 111 0;
#X connect 101 0 104 0;
#X connect 102 0 104 1;
#X connect 103 0 104 2;
#X connect 104 0 86 0;
#X connect 105 0 108 0;
#X connect 106 0 108 1;
#X connect 107 0 108 2;
#X connect 108 0 95 0;
#X connect 111 0 94 3;
#X connect 112 0 85 3;
#X connect 113 0 85 2;
#X connect 114 0 94 2;
#X connect 115 0 116 0;
#X connect 116 0 117 0;
#X connect 117 0 120 0;
#X connect 118 0 115 0;
#X connect 119 0 115 0;
#X connect 120 0 127 0;
#X connect 120 1 128 0;
#X connect 120 2 129 0;
#X connect 121 0 122 0;
#X connect 122 0 123 0;
#X connect 123 0 125 0;
#X connect 124 0 121 0;
#X connect 125 0 130 0;
#X connect 126 0 121 0;
#X connect 127 0 33 0;
#X connect 128 0 35 0;
#X connect 129 0 37 0;
#X connect 130 0 39 0;
#X connect 131 0 54 0;
#X connect 132 0 63 0;
#X connect 133 0 142 0;
#X connect 135 0 136 0;
#X connect 136 0 134 0;
#X connect 136 0 133 0;
#X connect 136 0 138 0;
#X connect 136 0 140 0;
#X connect 137 0 143 0;
#X connect 138 0 137 0;
#X connect 139 0 144 0;
#X connect 140 0 139 0;
#X connect 141 0 4 0;
#X connect 142 0 4 0;
#X connect 143 0 4 0;
#X connect 144 0 4 0;
