#N canvas 4 23 1276 703 10;
#X obj 123 379 loadbang;
#X msg 123 402 0.1;
#X obj 232 582 echoB~;
#X obj 452 634 flangerB~;
#X obj 669 635 reverbB~;
#N canvas 0 22 450 278 (subpatch) 0;
#X array vocalAudioFile 85248 float 2;
#X coords 0 1 85248 -1 200 140 1 0 0;
#X restore 16 51 graph;
#X obj 20 525 +~;
#X obj 1185 648 audioOnOff;
#X obj 1185 624 tgl 15 0 empty empty empty 17 7 0 10 #fcfcfc #000000 #000000 0 1;
#X obj 1185 599 loadbang;
#X obj 13 647 filterB~;
#X obj 15 502 playAudioFile~;
#X text 24 12 PLAYING AUDIO FILE AND CONTROL AUDIO EFFECTS BASED ON ANALOG SENSORS, f 68;
#X obj 12 426 setSensorThreshold~;
#X msg 96 471 voclaHit0.wav;
#X msg 97 451 vocalAudioFile;
#X obj 373 411 loadbang;
#X msg 348 375 0.1;
#N canvas 0 22 450 278 (subpatch) 0;
#X array array6 165660 float 2;
#X coords 0 1 165660 -1 200 140 1 0 0;
#X restore 225 52 graph;
#X obj 238 398 setSensorThreshold~;
#X obj 232 481 playAudioFile~;
#X msg 291 438 array6;
#X msg 313 458 synthloop3.wav;
#X obj 598 373 loadbang;
#X msg 562 373 0.1;
#N canvas 0 22 450 278 (subpatch) 0;
#X array array7 167086 float 2;
#X coords 0 1 167086 -1 200 140 1 0 0;
#X restore 445 53 graph;
#X obj 453 396 setSensorThreshold~;
#X obj 455 476 playAudioFile~;
#X obj 812 376 loadbang;
#X msg 780 374 0.1;
#N canvas 0 22 450 278 (subpatch) 0;
#X array array9 82687 float 2;
#X coords 0 1 82687 -1 200 140 1 0 0;
#X restore 653 53 graph;
#X obj 669 409 setSensorThreshold~;
#X obj 669 481 playAudioFile~;
#X msg 512 424 array7;
#X msg 536 442 vocal3.wav;
#X msg 726 430 array9;
#X obj 19 344 hsl 136 16 0 1 0 0 empty empty empty -2 -8 0 10 #fcfcfc #000000 #000000 0 1;
#X obj 17 364 sig~;
#X obj 242 342 hsl 136 16 0 1 0 0 empty empty empty -2 -8 0 10 #fcfcfc #000000 #000000 0 1;
#X obj 238 364 sig~;
#X obj 456 346 hsl 136 16 0 1 0 0 empty empty empty -2 -8 0 10 #fcfcfc #000000 #000000 0 1;
#X obj 453 369 sig~;
#X obj 672 346 hsl 136 16 0 1 0 0 empty empty empty -2 -8 0 10 #fcfcfc #000000 #000000 0 1;
#X obj 669 370 sig~;
#X obj 268 515 hsl 136 16 0 1 0 0 empty empty empty -2 -8 0 10 #fcfcfc #000000 #000000 0 1;
#X obj 265 536 sig~;
#X obj 504 562 hsl 136 16 0 1 0 0 empty empty empty -2 -8 0 10 #fcfcfc #000000 #000000 0 1;
#X obj 501 583 sig~;
#X obj 715 567 hsl 136 16 0 1 0 0 empty empty empty -2 -8 0 10 #fcfcfc #000000 #000000 0 1;
#X obj 712 588 sig~;
#X obj 82 579 hsl 136 16 0 1 0 0 empty empty empty -2 -8 0 10 #fcfcfc #000000 #000000 0 1;
#X obj 78 600 sig~;
#X obj 881 634 reverbB~;
#X msg 992 373 0.1;
#N canvas 0 22 450 278 (subpatch) 0;
#X array array10 84142 float 2;
#X coords 0 1 84142 -1 200 140 1 0 0;
#X restore 874 52 graph;
#X obj 881 408 setSensorThreshold~;
#X obj 881 480 playAudioFile~;
#X obj 884 345 hsl 136 16 0 1 0 0 empty empty empty -2 -8 0 10 #fcfcfc #000000 #000000 0 1;
#X obj 881 369 sig~;
#X obj 927 566 hsl 136 16 0 1 0 0 empty empty empty -2 -8 0 10 #fcfcfc #000000 #000000 0 1;
#X obj 924 587 sig~;
#X obj 1094 634 reverbB~;
#X msg 1205 373 0.1;
#N canvas 0 22 450 278 (subpatch) 0;
#X array array11 82710 float 2;
#X coords 0 1 82710 -1 200 140 1 0 0;
#X restore 1087 52 graph;
#X obj 1094 408 setSensorThreshold~;
#X obj 1094 480 playAudioFile~;
#X obj 1097 345 hsl 136 16 0 1 0 0 empty empty empty -2 -8 0 10 #fcfcfc #000000 #000000 0 1;
#X obj 1094 369 sig~;
#X obj 1140 566 hsl 136 16 0 1 0 0 empty empty empty -2 -8 0 10 #fcfcfc #000000 #000000 0 1;
#X obj 1137 587 sig~;
#X msg 938 429 array10;
#X msg 1151 429 array11;
#X obj 1017 400 loadbang;
#X obj 1226 401 loadbang;
#X msg 1175 444 drumloop7.wav;
#X msg 962 444 synthloop9.wav;
#X obj 514 677 dac~;
#X obj 19 203 serial_communication;
#X msg 750 445 drumloop3.wav;
#X obj 20 246 hsl 162 19 0 1023 0 0 empty empty empty -2 -10 0 12 #fcfcfc #000000 #000000 0 1;
#X obj 19 224 unpack 0 0 0;
#X obj 20 269 hsl 162 19 0 1023 0 0 empty empty empty -2 -10 0 12 #fcfcfc #000000 #000000 0 1;
#X obj 20 292 hsl 162 19 0 1023 0 0 empty empty empty -2 -10 0 12 #fcfcfc #000000 #000000 0 1;
#X obj 17 319 scale 0 1023 1 0;
#X obj 242 244 hsl 162 19 0 1023 0 0 empty empty empty -2 -10 0 12 #fcfcfc #000000 #000000 0 1;
#X obj 242 267 hsl 162 19 0 1023 0 0 empty empty empty -2 -10 0 12 #fcfcfc #000000 #000000 0 1;
#X obj 242 290 hsl 162 19 0 1023 0 0 empty empty empty -2 -10 0 12 #fcfcfc #000000 #000000 0 1;
#X obj 239 317 scale 0 1023 1 0;
#X obj 457 242 hsl 162 19 0 1023 0 0 empty empty empty -2 -10 0 12 #fcfcfc #000000 #000000 0 1;
#X obj 457 265 hsl 162 19 0 1023 0 0 empty empty empty -2 -10 0 12 #fcfcfc #000000 #000000 0 1;
#X obj 457 288 hsl 162 19 0 1023 0 0 empty empty empty -2 -10 0 12 #fcfcfc #000000 #000000 0 1;
#X obj 454 315 scale 0 1023 1 0;
#X obj 673 240 hsl 162 19 0 1023 0 0 empty empty empty -2 -10 0 12 #fcfcfc #000000 #000000 0 1;
#X obj 673 263 hsl 162 19 0 1023 0 0 empty empty empty -2 -10 0 12 #fcfcfc #000000 #000000 0 1;
#X obj 673 286 hsl 162 19 0 1023 0 0 empty empty empty -2 -10 0 12 #fcfcfc #000000 #000000 0 1;
#X obj 670 313 scale 0 1023 1 0;
#X obj 887 239 hsl 162 19 0 1023 0 0 empty empty empty -2 -10 0 12 #fcfcfc #000000 #000000 0 1;
#X obj 887 262 hsl 162 19 0 1023 0 0 empty empty empty -2 -10 0 12 #fcfcfc #000000 #000000 0 1;
#X obj 887 285 hsl 162 19 0 1023 0 0 empty empty empty -2 -10 0 12 #fcfcfc #000000 #000000 0 1;
#X obj 884 312 scale 0 1023 1 0;
#X obj 1093 237 hsl 162 19 0 1023 0 0 empty empty empty -2 -10 0 12 #fcfcfc #000000 #000000 0 1;
#X obj 1093 260 hsl 162 19 0 1023 0 0 empty empty empty -2 -10 0 12 #fcfcfc #000000 #000000 0 1;
#X obj 1093 283 hsl 162 19 0 1023 0 0 empty empty empty -2 -10 0 12 #fcfcfc #000000 #000000 0 1;
#X obj 1090 310 scale 0 1023 1 0;
#X text 191 270 min;
#X text 190 293 max;
#X connect 0 0 1 0;
#X connect 0 0 15 0;
#X connect 0 0 14 0;
#X connect 1 0 13 1;
#X connect 2 0 76 0;
#X connect 2 0 76 1;
#X connect 3 0 76 0;
#X connect 3 0 76 1;
#X connect 4 0 76 0;
#X connect 4 0 76 1;
#X connect 6 0 10 0;
#X connect 8 0 7 0;
#X connect 9 0 8 0;
#X connect 10 0 76 0;
#X connect 10 0 76 1;
#X connect 11 0 6 0;
#X connect 13 0 11 0;
#X connect 13 1 11 1;
#X connect 14 0 11 3;
#X connect 15 0 11 2;
#X connect 16 0 17 0;
#X connect 16 0 21 0;
#X connect 16 0 22 0;
#X connect 17 0 19 1;
#X connect 19 0 20 0;
#X connect 19 1 20 1;
#X connect 20 0 2 0;
#X connect 21 0 20 2;
#X connect 22 0 20 3;
#X connect 23 0 24 0;
#X connect 23 0 33 0;
#X connect 23 0 34 0;
#X connect 24 0 26 1;
#X connect 26 0 27 0;
#X connect 26 1 27 1;
#X connect 27 0 3 0;
#X connect 28 0 29 0;
#X connect 28 0 35 0;
#X connect 28 0 78 0;
#X connect 29 0 31 1;
#X connect 31 0 32 0;
#X connect 31 1 32 1;
#X connect 32 0 4 0;
#X connect 33 0 27 2;
#X connect 34 0 27 3;
#X connect 35 0 32 2;
#X connect 36 0 37 0;
#X connect 37 0 13 0;
#X connect 38 0 39 0;
#X connect 39 0 19 0;
#X connect 40 0 41 0;
#X connect 41 0 26 0;
#X connect 42 0 43 0;
#X connect 43 0 31 0;
#X connect 44 0 45 0;
#X connect 45 0 2 1;
#X connect 46 0 47 0;
#X connect 47 0 3 1;
#X connect 48 0 49 0;
#X connect 49 0 4 1;
#X connect 50 0 51 0;
#X connect 51 0 10 1;
#X connect 52 0 76 0;
#X connect 52 0 76 1;
#X connect 53 0 55 1;
#X connect 55 0 56 0;
#X connect 55 1 56 1;
#X connect 56 0 52 0;
#X connect 57 0 58 0;
#X connect 58 0 55 0;
#X connect 59 0 60 0;
#X connect 60 0 52 1;
#X connect 61 0 76 0;
#X connect 61 0 76 1;
#X connect 62 0 64 1;
#X connect 64 0 65 0;
#X connect 64 1 65 1;
#X connect 65 0 61 0;
#X connect 66 0 67 0;
#X connect 67 0 64 0;
#X connect 68 0 69 0;
#X connect 69 0 61 1;
#X connect 70 0 56 2;
#X connect 71 0 65 2;
#X connect 72 0 53 0;
#X connect 72 0 70 0;
#X connect 72 0 75 0;
#X connect 73 0 62 0;
#X connect 73 0 71 0;
#X connect 73 0 74 0;
#X connect 74 0 65 3;
#X connect 75 0 56 3;
#X connect 77 0 80 0;
#X connect 78 0 32 3;
#X connect 79 0 83 0;
#X connect 80 0 79 0;
#X connect 80 1 84 0;
#X connect 81 0 83 1;
#X connect 82 0 83 2;
#X connect 83 0 36 0;
#X connect 84 0 87 0;
#X connect 85 0 87 1;
#X connect 86 0 87 2;
#X connect 87 0 38 0;
#X connect 88 0 91 0;
#X connect 89 0 91 1;
#X connect 90 0 91 2;
#X connect 91 0 40 0;
#X connect 92 0 95 0;
#X connect 93 0 95 1;
#X connect 94 0 95 2;
#X connect 95 0 42 0;
#X connect 96 0 99 0;
#X connect 97 0 99 1;
#X connect 98 0 99 2;
#X connect 99 0 57 0;
#X connect 100 0 103 0;
#X connect 101 0 103 1;
#X connect 102 0 103 2;
#X connect 103 0 66 0;
