#N canvas 173 212 450 300 12;
#X obj 107 151 hsl 162 19 0 4095 0 0 empty empty empty -2 -10 0 12 #faff00 #000000 #000000 0 1;
#X obj 107 174 hsl 162 19 0 4095 0 0 empty empty empty -2 -10 0 12 #00ff04 #000000 #000000 0 1;
#X text 274 151 min;
#X text 273 174 max;
#X obj 108 127 hsl 162 19 0 4095 0 0 empty empty empty -2 -10 0 12 #fcfcfc #000000 #000000 0 1;
#X obj 21 22 loadbang;
#X msg 12 65 0;
#X msg 43 67 4095;
#X obj 169 32 inlet;
#X obj 101 276 outlet;
#X obj 100 216 scale 0 4095 1 0;
#X connect 0 0 10 1;
#X connect 1 0 10 2;
#X connect 5 0 6 0;
#X connect 5 0 7 0;
#X connect 6 0 0 0;
#X connect 7 0 1 0;
#X connect 8 0 4 0;
#X connect 8 0 10 0;
#X connect 10 0 9 0;
#X coords 0 -1 1 1 200 100 1 100 100;
