#N canvas 445 254 598 476 12;
#X obj 152 188 writesf~;
#X obj 149 133 adc~;
#X msg 130 104 start;
#X msg 109 170 stop;
#X obj 98 105 t b;
#X obj 128 37 t b b;
#X obj 67 133 delay 3000;
#X obj 128 8 inlet;
#X obj 56 272 outlet;
#X msg 91 219 1;
#X msg 55 174 0;
#X obj 261 145 snapshot~;
#X floatatom 284 183 5 0 0 0 - - - 0;
#X obj 261 124 metro 40;
#X obj 371 201 hsl 162 19 -0.1 0.1 0 0 empty empty empty -2 -10 0 12 #fcfcfc #000000 #000000 0 1;
#X obj 307 289 > 0.01;
#X obj 265 210 abs;
#X obj 307 266 line;
#X obj 306 313 change;
#X obj 247 249 > 0.01;
#X obj 239 339 sel 1;
#X obj 312 336 sel 0;
#X obj 400 380 t b b b;
#X msg 130 62 1;
#X obj 199 13 bng 19 250 50 0 empty empty empty 0 -10 0 12 #fcfcfc #000000 #000000;
#X obj 239 380 onebang 1;
#X obj 304 77 prepend open;
#X obj 305 51 prepend \$1;
#X msg 306 243 \$1 200;
#X obj 502 25 inlet;
#X obj 455 347 outlet;
#X obj 374 338 delay 1875;
#X connect 1 0 0 0;
#X connect 1 0 11 0;
#X connect 1 1 0 0;
#X connect 2 0 0 0;
#X connect 2 0 4 0;
#X connect 3 0 0 0;
#X connect 4 0 6 0;
#X connect 5 0 23 0;
#X connect 5 1 27 0;
#X connect 7 0 5 0;
#X connect 9 0 8 0;
#X connect 10 0 8 0;
#X connect 10 0 13 0;
#X connect 11 0 16 0;
#X connect 11 0 12 0;
#X connect 11 0 14 0;
#X connect 11 0 30 0;
#X connect 13 0 11 0;
#X connect 15 0 18 0;
#X connect 16 0 28 0;
#X connect 16 0 19 0;
#X connect 17 0 15 0;
#X connect 18 0 21 0;
#X connect 19 0 20 0;
#X connect 20 0 25 0;
#X connect 22 0 10 0;
#X connect 22 1 25 1;
#X connect 22 2 3 0;
#X connect 23 0 13 0;
#X connect 24 0 5 0;
#X connect 25 0 2 0;
#X connect 25 0 9 0;
#X connect 25 0 31 0;
#X connect 26 0 0 0;
#X connect 27 0 26 0;
#X connect 28 0 17 0;
#X connect 29 0 19 1;
#X connect 29 0 15 1;
#X connect 31 0 22 0;
