#N canvas 235 23 995 755 12;
#X obj 112 190 comport \$1 9600;
#X msg 177 128 close;
#X msg 177 153 devices;
#X obj 111 107 hradio 15 1 0 8 empty empty port 0 -8 0 10 #fcfcfc #000000 #000000 0;
#X msg 111 129 open \$1;
#X obj 110 215 select 0;
#X obj 109 239 sel 13;
#X obj 109 265 sel 10;
#X obj 186 297 list store;
#X obj 225 240 list prepend append;
#X obj 225 268 list trim;
#X obj 108 288 t b b;
#X obj 186 323 list tosymbol;
#X obj 186 214 sel 32;
#X obj 104 370 list store;
#X obj 186 370 list prepend append;
#X obj 186 394 list trim;
#X obj 104 392 list trim;
#X obj 186 347 f;
#X floatatom 104 479 5 0 0 0 - - - 0;
#X floatatom 144 479 5 0 0 0 - - - 0;
#X floatatom 186 479 5 0 0 0 - - - 0;
#X floatatom 227 479 5 0 0 0 - - - 0;
#X text 238 214 space;
#X obj 104 533 outlet;
#X obj 75 74 inlet;
#X floatatom 268 478 5 0 0 0 - - - 0;
#X floatatom 311 479 5 0 0 0 - - - 0;
#X obj 105 419 unpack 0 0 0 0 0 0 0 0;
#X floatatom 353 479 5 0 0 0 - - - 0;
#X floatatom 393 479 5 0 0 0 - - - 0;
#X obj 268 556 hsl 162 19 0 1023 0 0 empty empty empty -2 -10 0 12 #fcfcfc #000000 #000000 0 1;
#X connect 0 0 5 0;
#X connect 1 0 0 0;
#X connect 2 0 0 0;
#X connect 3 0 4 0;
#X connect 4 0 0 0;
#X connect 5 1 6 0;
#X connect 6 1 7 0;
#X connect 7 0 11 0;
#X connect 7 1 13 0;
#X connect 8 0 12 0;
#X connect 9 0 10 0;
#X connect 10 0 8 0;
#X connect 11 0 14 1;
#X connect 11 1 14 0;
#X connect 12 0 18 0;
#X connect 13 0 8 0;
#X connect 13 0 8 1;
#X connect 13 1 9 0;
#X connect 14 0 17 0;
#X connect 15 0 16 0;
#X connect 16 0 14 0;
#X connect 17 0 24 0;
#X connect 17 0 28 0;
#X connect 18 0 15 0;
#X connect 25 0 0 0;
#X connect 28 0 19 0;
#X connect 28 0 31 0;
#X connect 28 1 20 0;
#X connect 28 2 21 0;
#X connect 28 3 22 0;
#X connect 28 4 26 0;
#X connect 28 5 27 0;
#X connect 28 6 29 0;
#X connect 28 7 30 0;
