#N canvas 227 71 619 591 12;
#X text 28 18 schift function implementation: perhaps useful objects;
#X obj 33 174 trigger anything anyanything;
#X obj 327 175 t a a;
#X text 26 204 trigger objects are in general useful \, especially when you want to make sure the order of trigger;
#X obj 384 175 t b b;
#X obj 37 273 select 0 1;
#X obj 196 274 sel 0 1;
#X text 255 175 short>>>;
#X text 121 274 short>>>;
#X obj 40 319 change;
#X obj 40 359 onebang;
#X obj 282 254 > 100;
#X obj 282 281 tgl 19 0 empty empty empty 0 -10 0 12 #fcfcfc #000000 #000000 0 1;
#X text 338 256 select is useful when you have 1/0 result from comparison;
#X text 103 320 when you want to filter out only when change happens;
#X text 32 50 right click > help to see help patches and see how you use these objects;
#X obj 41 407 readsf~;
#X text 109 408 this is the sound loader that can play back sound;
#X obj 41 452 dac~;
#X text 86 455 speaker;
#X msg 45 500 1;
#X msg 84 500 0;
#X text 134 499 these message boxes are useful when you have to give specific number or message to another box \, i.e. readsf~;
#X obj 31 126 cyclone/gate 2 1;
#X text 166 126 gates which outlet the inlet goes;
#X connect 11 0 12 0;
