#N canvas 165 23 930 748 12;
#X floatatom 713 261 15 0 0 0 - - - 0;
#X obj 674 427 phasor~;
#X obj 605 487 *~;
#X obj 677 295 expr 44100/$f1;
#X obj 970 248 r data;
#X floatatom 995 294 5 0 0 0 - - - 0;
#X floatatom 1016 422 5 0 0 0 - - - 0;
#X obj 990 336 / 130;
#X obj 990 362 / 10;
#X msg 765 445 0, f 4;
#X msg 804 188 stop;
#X floatatom 1046 257 5 0 0 0 - - - 0;
#N canvas 0 22 450 278 (subpatch) 0;
#X array array_test 165375 float 2;
#X coords 0 1 165375 -1 200 140 1;
#X restore 47 32 graph;
#X obj 712 239 soundfiler;
#X floatatom 689 330 5 0 0 0 - - - 0;
#X obj 610 530 tabread4~ array_test;
#X obj 632 643 dac~;
#N canvas 0 22 450 278 (subpatch) 0;
#X array array_test2 82687 float 2;
#X coords 0 1 82687 -1 200 140 1;
#X restore 270 36 graph;
#X obj 427 263 soundfiler;
#X floatatom 428 285 15 0 0 0 - - - 0;
#X obj 430 443 phasor~;
#X obj 426 467 *~;
#X obj 428 311 expr 44100/$f1;
#X floatatom 445 346 5 0 0 0 - - - 0;
#X obj 427 492 tabread4~ array_test2;
#X msg 427 245 read -resize drumloop5.wav array_test2;
#X msg 486 520 0;
#X msg 496 550 1;
#X msg 773 490 1;
#X obj 658 583 *~;
#X obj 442 567 *~;
#X obj 706 179 bng 16 250 50 0 empty empty empty 0 -8 0 10 #fcfcfc #000000 #000000;
#X msg 712 221 read -resize drumloop8.wav array_test;
#X floatatom 476 408 5 0 0 0 - - - 0;
#X floatatom 723 398 5 0 0 0 - - - 0;
#X obj 466 377 * 0.1;
#X obj 705 375 * 0.1;
#N canvas 0 22 450 278 (subpatch) 0;
#X array array_test3 82688 float 2;
#X coords 0 1 82688 -1 200 140 1;
#X restore 482 34 graph;
#X obj 178 234 soundfiler;
#X floatatom 179 256 15 0 0 0 - - - 0;
#X obj 179 441 phasor~;
#X obj 175 465 *~;
#X obj 182 296 expr 44100/$f1;
#X floatatom 194 344 5 0 0 0 - - - 0;
#X msg 235 518 0;
#X msg 245 548 1;
#X obj 191 565 *~;
#X floatatom 225 406 5 0 0 0 - - - 0;
#X obj 215 375 * 0.1;
#X obj 176 490 tabread4~ array_test3;
#X obj 177 675 tgl 16 0 empty empty empty 0 -8 0 10 #fcfcfc #000000 #000000 0 1;
#X obj 177 635 bng 16 250 50 0 empty empty empty 0 -8 0 10 #fcfcfc #000000 #000000;
#X msg 178 216 read -resize sample11.wav array_test3;
#X floatatom 903 309 5 0 0 0 - - - 0;
#X obj 177 651 recorder_f sample11.wav;
#X connect 0 0 3 0;
#X connect 0 0 2 1;
#X connect 1 0 2 0;
#X connect 2 0 15 0;
#X connect 3 0 1 0;
#X connect 3 0 14 0;
#X connect 4 0 5 0;
#X connect 5 0 7 0;
#X connect 7 0 8 0;
#X connect 8 0 6 0;
#X connect 8 0 35 0;
#X connect 8 0 36 0;
#X connect 8 0 48 0;
#X connect 9 0 29 1;
#X connect 10 0 9 0;
#X connect 11 0 5 0;
#X connect 13 0 0 0;
#X connect 14 0 36 1;
#X connect 15 0 29 0;
#X connect 18 0 19 0;
#X connect 19 0 22 0;
#X connect 19 0 21 1;
#X connect 20 0 21 0;
#X connect 21 0 24 0;
#X connect 22 0 20 0;
#X connect 22 0 23 0;
#X connect 23 0 35 1;
#X connect 24 0 30 0;
#X connect 25 0 18 0;
#X connect 26 0 30 1;
#X connect 27 0 30 1;
#X connect 28 0 29 1;
#X connect 29 0 16 0;
#X connect 30 0 16 0;
#X connect 31 0 32 0;
#X connect 31 0 25 0;
#X connect 31 0 52 0;
#X connect 32 0 13 0;
#X connect 35 0 20 0;
#X connect 35 0 33 0;
#X connect 36 0 1 0;
#X connect 36 0 34 0;
#X connect 38 0 39 0;
#X connect 39 0 42 0;
#X connect 39 0 41 1;
#X connect 40 0 41 0;
#X connect 41 0 49 0;
#X connect 42 0 40 0;
#X connect 42 0 43 0;
#X connect 43 0 48 1;
#X connect 44 0 46 1;
#X connect 45 0 46 1;
#X connect 46 0 16 0;
#X connect 48 0 40 0;
#X connect 48 0 47 0;
#X connect 49 0 46 0;
#X connect 51 0 54 0;
#X connect 52 0 38 0;
#X connect 53 0 8 0;
#X connect 54 0 50 0;
